<mxfile host="app.diagrams.net" modified="2022-03-13T17:50:11.976Z" agent="5.0 (Windows NT 10.0; Win64; x64) AppleWebKit/537.36 (KHTML, like Gecko) Chrome/99.0.4844.51 Safari/537.36" etag="DIxRpBdldxbVTy_U89GL" version="16.6.7" type="github">
  <diagram id="I4fLBjJm4LA_Jybld9Be" name="Page-1">
    <mxGraphModel dx="426" dy="1128" grid="1" gridSize="10" guides="1" tooltips="1" connect="1" arrows="1" fold="1" page="1" pageScale="1" pageWidth="827" pageHeight="1169" math="0" shadow="0">
      <root>
        <mxCell id="0" />
        <mxCell id="1" parent="0" />
        <mxCell id="wmHboVGkY-6y0HL-PFnJ-267" style="edgeStyle=orthogonalEdgeStyle;rounded=0;orthogonalLoop=1;jettySize=auto;html=1;exitX=0.5;exitY=1;exitDx=0;exitDy=0;endArrow=none;endFill=0;strokeColor=#82B366;" edge="1" parent="1" source="wmHboVGkY-6y0HL-PFnJ-268" target="wmHboVGkY-6y0HL-PFnJ-275">
          <mxGeometry relative="1" as="geometry" />
        </mxCell>
        <mxCell id="wmHboVGkY-6y0HL-PFnJ-570" style="edgeStyle=orthogonalEdgeStyle;rounded=0;orthogonalLoop=1;jettySize=auto;html=1;exitX=1;exitY=0.25;exitDx=0;exitDy=0;entryX=0;entryY=0.25;entryDx=0;entryDy=0;fontSize=15;endArrow=none;endFill=0;strokeColor=#82B366;" edge="1" parent="1" source="wmHboVGkY-6y0HL-PFnJ-268" target="wmHboVGkY-6y0HL-PFnJ-272">
          <mxGeometry relative="1" as="geometry" />
        </mxCell>
        <mxCell id="wmHboVGkY-6y0HL-PFnJ-268" value="M_5" style="text;html=1;strokeColor=#82B366;fillColor=#d5e8d4;align=center;verticalAlign=middle;whiteSpace=wrap;rounded=0;" vertex="1" parent="1">
          <mxGeometry x="1795" y="380" width="60" height="30" as="geometry" />
        </mxCell>
        <mxCell id="wmHboVGkY-6y0HL-PFnJ-270" style="edgeStyle=orthogonalEdgeStyle;rounded=0;orthogonalLoop=1;jettySize=auto;html=1;exitX=0.5;exitY=1;exitDx=0;exitDy=0;endArrow=none;endFill=0;strokeColor=#82B366;" edge="1" parent="1" source="wmHboVGkY-6y0HL-PFnJ-272" target="wmHboVGkY-6y0HL-PFnJ-278">
          <mxGeometry relative="1" as="geometry" />
        </mxCell>
        <mxCell id="wmHboVGkY-6y0HL-PFnJ-572" style="edgeStyle=orthogonalEdgeStyle;rounded=0;orthogonalLoop=1;jettySize=auto;html=1;exitX=1;exitY=0.25;exitDx=0;exitDy=0;entryX=0;entryY=0.25;entryDx=0;entryDy=0;fontSize=15;endArrow=none;endFill=0;strokeColor=#82B366;" edge="1" parent="1" source="wmHboVGkY-6y0HL-PFnJ-272" target="wmHboVGkY-6y0HL-PFnJ-290">
          <mxGeometry relative="1" as="geometry" />
        </mxCell>
        <mxCell id="wmHboVGkY-6y0HL-PFnJ-274" style="edgeStyle=orthogonalEdgeStyle;rounded=0;orthogonalLoop=1;jettySize=auto;html=1;exitX=0.5;exitY=1;exitDx=0;exitDy=0;endArrow=none;endFill=0;strokeColor=#82B366;" edge="1" parent="1" source="wmHboVGkY-6y0HL-PFnJ-275">
          <mxGeometry relative="1" as="geometry">
            <mxPoint x="1824.8095238095243" y="480" as="targetPoint" />
          </mxGeometry>
        </mxCell>
        <mxCell id="wmHboVGkY-6y0HL-PFnJ-571" style="edgeStyle=orthogonalEdgeStyle;rounded=0;orthogonalLoop=1;jettySize=auto;html=1;exitX=1;exitY=0.25;exitDx=0;exitDy=0;entryX=0;entryY=0.25;entryDx=0;entryDy=0;fontSize=15;endArrow=none;endFill=0;strokeColor=#82B366;" edge="1" parent="1" source="wmHboVGkY-6y0HL-PFnJ-275" target="wmHboVGkY-6y0HL-PFnJ-281">
          <mxGeometry relative="1" as="geometry" />
        </mxCell>
        <mxCell id="wmHboVGkY-6y0HL-PFnJ-275" value="F_16" style="text;html=1;strokeColor=#82b366;fillColor=#d5e8d4;align=center;verticalAlign=middle;whiteSpace=wrap;rounded=0;" vertex="1" parent="1">
          <mxGeometry x="1795" y="430" width="60" height="30" as="geometry" />
        </mxCell>
        <mxCell id="wmHboVGkY-6y0HL-PFnJ-277" style="edgeStyle=orthogonalEdgeStyle;rounded=0;orthogonalLoop=1;jettySize=auto;html=1;exitX=0.5;exitY=1;exitDx=0;exitDy=0;entryX=0.5;entryY=0;entryDx=0;entryDy=0;endArrow=none;endFill=0;fillColor=#d5e8d4;strokeColor=#82b366;" edge="1" parent="1" source="wmHboVGkY-6y0HL-PFnJ-278" target="wmHboVGkY-6y0HL-PFnJ-318">
          <mxGeometry relative="1" as="geometry" />
        </mxCell>
        <mxCell id="wmHboVGkY-6y0HL-PFnJ-573" style="edgeStyle=orthogonalEdgeStyle;rounded=0;orthogonalLoop=1;jettySize=auto;html=1;exitX=1;exitY=0.25;exitDx=0;exitDy=0;entryX=0;entryY=0.25;entryDx=0;entryDy=0;fontSize=15;endArrow=none;endFill=0;strokeColor=#82B366;" edge="1" parent="1" source="wmHboVGkY-6y0HL-PFnJ-278" target="wmHboVGkY-6y0HL-PFnJ-303">
          <mxGeometry relative="1" as="geometry" />
        </mxCell>
        <mxCell id="wmHboVGkY-6y0HL-PFnJ-278" value="F_17" style="text;html=1;strokeColor=#82b366;fillColor=#d5e8d4;align=center;verticalAlign=middle;whiteSpace=wrap;rounded=0;" vertex="1" parent="1">
          <mxGeometry x="2415" y="430" width="60" height="30" as="geometry" />
        </mxCell>
        <mxCell id="wmHboVGkY-6y0HL-PFnJ-279" style="edgeStyle=orthogonalEdgeStyle;rounded=0;orthogonalLoop=1;jettySize=auto;html=1;exitX=1;exitY=0.5;exitDx=0;exitDy=0;endArrow=none;endFill=0;fillColor=#f5f5f5;strokeColor=#666666;" edge="1" parent="1" source="wmHboVGkY-6y0HL-PFnJ-281" target="wmHboVGkY-6y0HL-PFnJ-284">
          <mxGeometry relative="1" as="geometry" />
        </mxCell>
        <mxCell id="wmHboVGkY-6y0HL-PFnJ-280" style="edgeStyle=orthogonalEdgeStyle;rounded=0;orthogonalLoop=1;jettySize=auto;html=1;exitX=0.5;exitY=1;exitDx=0;exitDy=0;endArrow=none;endFill=0;fillColor=#f5f5f5;strokeColor=#666666;" edge="1" parent="1" source="wmHboVGkY-6y0HL-PFnJ-281">
          <mxGeometry relative="1" as="geometry">
            <mxPoint x="2210" y="480" as="targetPoint" />
          </mxGeometry>
        </mxCell>
        <mxCell id="wmHboVGkY-6y0HL-PFnJ-281" value="F_6 x 2" style="text;html=1;strokeColor=#666666;fillColor=#f5f5f5;align=center;verticalAlign=middle;whiteSpace=wrap;rounded=0;fontColor=#333333;" vertex="1" parent="1">
          <mxGeometry x="2180" y="430" width="60" height="30" as="geometry" />
        </mxCell>
        <mxCell id="wmHboVGkY-6y0HL-PFnJ-282" style="edgeStyle=orthogonalEdgeStyle;rounded=0;orthogonalLoop=1;jettySize=auto;html=1;exitX=1;exitY=0.5;exitDx=0;exitDy=0;entryX=0;entryY=0.5;entryDx=0;entryDy=0;endArrow=none;endFill=0;fillColor=#f5f5f5;strokeColor=#666666;" edge="1" parent="1" source="wmHboVGkY-6y0HL-PFnJ-284" target="wmHboVGkY-6y0HL-PFnJ-286">
          <mxGeometry relative="1" as="geometry" />
        </mxCell>
        <mxCell id="wmHboVGkY-6y0HL-PFnJ-283" style="edgeStyle=orthogonalEdgeStyle;rounded=0;orthogonalLoop=1;jettySize=auto;html=1;exitX=0.5;exitY=1;exitDx=0;exitDy=0;endArrow=none;endFill=0;fillColor=#f5f5f5;strokeColor=#666666;" edge="1" parent="1" source="wmHboVGkY-6y0HL-PFnJ-284" target="wmHboVGkY-6y0HL-PFnJ-288">
          <mxGeometry relative="1" as="geometry" />
        </mxCell>
        <mxCell id="wmHboVGkY-6y0HL-PFnJ-284" value="F_8 x 2" style="text;html=1;strokeColor=#666666;fillColor=#f5f5f5;align=center;verticalAlign=middle;whiteSpace=wrap;rounded=0;fontColor=#333333;" vertex="1" parent="1">
          <mxGeometry x="2260" y="430" width="60" height="30" as="geometry" />
        </mxCell>
        <mxCell id="wmHboVGkY-6y0HL-PFnJ-285" style="edgeStyle=orthogonalEdgeStyle;rounded=0;orthogonalLoop=1;jettySize=auto;html=1;exitX=0.5;exitY=1;exitDx=0;exitDy=0;entryX=0.5;entryY=0;entryDx=0;entryDy=0;endArrow=none;endFill=0;fillColor=#f5f5f5;strokeColor=#666666;" edge="1" parent="1" source="wmHboVGkY-6y0HL-PFnJ-286" target="wmHboVGkY-6y0HL-PFnJ-349">
          <mxGeometry relative="1" as="geometry" />
        </mxCell>
        <mxCell id="wmHboVGkY-6y0HL-PFnJ-286" value="F_5 x 16" style="text;html=1;strokeColor=#666666;fillColor=#f5f5f5;align=center;verticalAlign=middle;whiteSpace=wrap;rounded=0;fontColor=#333333;" vertex="1" parent="1">
          <mxGeometry x="2340" y="430" width="60" height="30" as="geometry" />
        </mxCell>
        <mxCell id="wmHboVGkY-6y0HL-PFnJ-287" value="I_2 x 0.05&amp;nbsp;" style="text;html=1;strokeColor=#666666;fillColor=#f5f5f5;align=center;verticalAlign=middle;whiteSpace=wrap;rounded=0;fontColor=#333333;" vertex="1" parent="1">
          <mxGeometry x="2180" y="480" width="60" height="30" as="geometry" />
        </mxCell>
        <mxCell id="wmHboVGkY-6y0HL-PFnJ-288" value="I_2 x 0.05" style="text;html=1;strokeColor=#666666;fillColor=#f5f5f5;align=center;verticalAlign=middle;whiteSpace=wrap;rounded=0;fontColor=#333333;" vertex="1" parent="1">
          <mxGeometry x="2260" y="480" width="60" height="30" as="geometry" />
        </mxCell>
        <mxCell id="wmHboVGkY-6y0HL-PFnJ-289" style="edgeStyle=orthogonalEdgeStyle;rounded=0;orthogonalLoop=1;jettySize=auto;html=1;exitX=1;exitY=0.5;exitDx=0;exitDy=0;entryX=0;entryY=0.5;entryDx=0;entryDy=0;endArrow=none;endFill=0;" edge="1" parent="1" source="wmHboVGkY-6y0HL-PFnJ-290" target="wmHboVGkY-6y0HL-PFnJ-292">
          <mxGeometry relative="1" as="geometry" />
        </mxCell>
        <mxCell id="wmHboVGkY-6y0HL-PFnJ-290" value="I_8" style="text;html=1;strokeColor=#666666;fillColor=#f5f5f5;align=center;verticalAlign=middle;whiteSpace=wrap;rounded=0;fontColor=#333333;" vertex="1" parent="1">
          <mxGeometry x="2765" y="380" width="60" height="30" as="geometry" />
        </mxCell>
        <mxCell id="wmHboVGkY-6y0HL-PFnJ-291" style="edgeStyle=orthogonalEdgeStyle;rounded=0;orthogonalLoop=1;jettySize=auto;html=1;exitX=1;exitY=0.5;exitDx=0;exitDy=0;entryX=0;entryY=0.5;entryDx=0;entryDy=0;endArrow=none;endFill=0;fillColor=#f5f5f5;strokeColor=#666666;" edge="1" parent="1" source="wmHboVGkY-6y0HL-PFnJ-292" target="wmHboVGkY-6y0HL-PFnJ-293">
          <mxGeometry relative="1" as="geometry" />
        </mxCell>
        <mxCell id="wmHboVGkY-6y0HL-PFnJ-292" value="I_10 x 2" style="text;html=1;strokeColor=#666666;fillColor=#f5f5f5;align=center;verticalAlign=middle;whiteSpace=wrap;rounded=0;fontColor=#333333;" vertex="1" parent="1">
          <mxGeometry x="2845" y="380" width="60" height="30" as="geometry" />
        </mxCell>
        <mxCell id="wmHboVGkY-6y0HL-PFnJ-293" value="I_5&amp;nbsp;" style="text;html=1;strokeColor=#666666;fillColor=#f5f5f5;align=center;verticalAlign=middle;whiteSpace=wrap;rounded=0;fontColor=#333333;" vertex="1" parent="1">
          <mxGeometry x="2925" y="380" width="60" height="30" as="geometry" />
        </mxCell>
        <mxCell id="wmHboVGkY-6y0HL-PFnJ-294" style="edgeStyle=orthogonalEdgeStyle;rounded=0;orthogonalLoop=1;jettySize=auto;html=1;exitX=0.5;exitY=1;exitDx=0;exitDy=0;endArrow=none;endFill=0;strokeColor=#82B366;" edge="1" parent="1" source="wmHboVGkY-6y0HL-PFnJ-295" target="wmHboVGkY-6y0HL-PFnJ-298">
          <mxGeometry relative="1" as="geometry" />
        </mxCell>
        <mxCell id="wmHboVGkY-6y0HL-PFnJ-295" value="F_11 x 5" style="text;html=1;strokeColor=#82b366;fillColor=#d5e8d4;align=center;verticalAlign=middle;whiteSpace=wrap;rounded=0;" vertex="1" parent="1">
          <mxGeometry x="1795" y="480" width="60" height="30" as="geometry" />
        </mxCell>
        <mxCell id="wmHboVGkY-6y0HL-PFnJ-296" style="edgeStyle=orthogonalEdgeStyle;rounded=0;orthogonalLoop=1;jettySize=auto;html=1;exitX=1;exitY=0.5;exitDx=0;exitDy=0;entryX=0;entryY=0.5;entryDx=0;entryDy=0;endArrow=none;endFill=0;fillColor=#d5e8d4;strokeColor=#82b366;" edge="1" parent="1" source="wmHboVGkY-6y0HL-PFnJ-298" target="wmHboVGkY-6y0HL-PFnJ-299">
          <mxGeometry relative="1" as="geometry" />
        </mxCell>
        <mxCell id="wmHboVGkY-6y0HL-PFnJ-297" style="edgeStyle=orthogonalEdgeStyle;rounded=0;orthogonalLoop=1;jettySize=auto;html=1;exitX=0.5;exitY=1;exitDx=0;exitDy=0;endArrow=none;endFill=0;fillColor=#d5e8d4;strokeColor=#82b366;" edge="1" parent="1" source="wmHboVGkY-6y0HL-PFnJ-298">
          <mxGeometry relative="1" as="geometry">
            <mxPoint x="1824.8095238095243" y="580" as="targetPoint" />
          </mxGeometry>
        </mxCell>
        <mxCell id="wmHboVGkY-6y0HL-PFnJ-298" value="F_3" style="text;html=1;strokeColor=#82b366;fillColor=#d5e8d4;align=center;verticalAlign=middle;whiteSpace=wrap;rounded=0;" vertex="1" parent="1">
          <mxGeometry x="1795" y="530" width="60" height="30" as="geometry" />
        </mxCell>
        <mxCell id="wmHboVGkY-6y0HL-PFnJ-299" value="I_6 x 0.5" style="text;html=1;strokeColor=#82b366;fillColor=#d5e8d4;align=center;verticalAlign=middle;whiteSpace=wrap;rounded=0;" vertex="1" parent="1">
          <mxGeometry x="1875" y="530" width="60" height="30" as="geometry" />
        </mxCell>
        <mxCell id="wmHboVGkY-6y0HL-PFnJ-300" value="I_3 x 0.5" style="text;html=1;strokeColor=#82b366;fillColor=#d5e8d4;align=center;verticalAlign=middle;whiteSpace=wrap;rounded=0;" vertex="1" parent="1">
          <mxGeometry x="1795" y="580" width="60" height="30" as="geometry" />
        </mxCell>
        <mxCell id="wmHboVGkY-6y0HL-PFnJ-301" style="edgeStyle=orthogonalEdgeStyle;rounded=0;orthogonalLoop=1;jettySize=auto;html=1;exitX=1;exitY=0.5;exitDx=0;exitDy=0;entryX=0;entryY=0.5;entryDx=0;entryDy=0;endArrow=none;endFill=0;fillColor=#f5f5f5;strokeColor=#666666;" edge="1" parent="1" source="wmHboVGkY-6y0HL-PFnJ-303" target="wmHboVGkY-6y0HL-PFnJ-306">
          <mxGeometry relative="1" as="geometry" />
        </mxCell>
        <mxCell id="wmHboVGkY-6y0HL-PFnJ-302" style="edgeStyle=orthogonalEdgeStyle;rounded=0;orthogonalLoop=1;jettySize=auto;html=1;exitX=0.5;exitY=1;exitDx=0;exitDy=0;entryX=0.5;entryY=0;entryDx=0;entryDy=0;endArrow=none;endFill=0;fillColor=#f5f5f5;strokeColor=#666666;" edge="1" parent="1" source="wmHboVGkY-6y0HL-PFnJ-303" target="wmHboVGkY-6y0HL-PFnJ-326">
          <mxGeometry relative="1" as="geometry" />
        </mxCell>
        <mxCell id="wmHboVGkY-6y0HL-PFnJ-303" value="S_6 x 3" style="text;html=1;strokeColor=#666666;fillColor=#f5f5f5;align=center;verticalAlign=middle;whiteSpace=wrap;rounded=0;fontColor=#333333;" vertex="1" parent="1">
          <mxGeometry x="2765" y="430" width="60" height="30" as="geometry" />
        </mxCell>
        <mxCell id="wmHboVGkY-6y0HL-PFnJ-304" style="edgeStyle=orthogonalEdgeStyle;rounded=0;orthogonalLoop=1;jettySize=auto;html=1;exitX=1;exitY=0.5;exitDx=0;exitDy=0;entryX=0;entryY=0.5;entryDx=0;entryDy=0;endArrow=none;endFill=0;fillColor=#f5f5f5;strokeColor=#666666;" edge="1" parent="1" source="wmHboVGkY-6y0HL-PFnJ-306" target="wmHboVGkY-6y0HL-PFnJ-309">
          <mxGeometry relative="1" as="geometry" />
        </mxCell>
        <mxCell id="wmHboVGkY-6y0HL-PFnJ-305" style="edgeStyle=orthogonalEdgeStyle;rounded=0;orthogonalLoop=1;jettySize=auto;html=1;exitX=0.5;exitY=1;exitDx=0;exitDy=0;entryX=0.5;entryY=0;entryDx=0;entryDy=0;endArrow=none;endFill=0;fillColor=#f5f5f5;strokeColor=#666666;" edge="1" parent="1" source="wmHboVGkY-6y0HL-PFnJ-306" target="wmHboVGkY-6y0HL-PFnJ-351">
          <mxGeometry relative="1" as="geometry" />
        </mxCell>
        <mxCell id="wmHboVGkY-6y0HL-PFnJ-306" value="F_5 x 12" style="text;html=1;strokeColor=#666666;fillColor=#f5f5f5;align=center;verticalAlign=middle;whiteSpace=wrap;rounded=0;fontColor=#333333;" vertex="1" parent="1">
          <mxGeometry x="3025" y="430" width="60" height="30" as="geometry" />
        </mxCell>
        <mxCell id="wmHboVGkY-6y0HL-PFnJ-307" style="edgeStyle=orthogonalEdgeStyle;rounded=0;orthogonalLoop=1;jettySize=auto;html=1;exitX=1;exitY=0.5;exitDx=0;exitDy=0;entryX=0;entryY=0.5;entryDx=0;entryDy=0;endArrow=none;endFill=0;fillColor=#f5f5f5;strokeColor=#666666;" edge="1" parent="1" source="wmHboVGkY-6y0HL-PFnJ-309" target="wmHboVGkY-6y0HL-PFnJ-312">
          <mxGeometry relative="1" as="geometry" />
        </mxCell>
        <mxCell id="wmHboVGkY-6y0HL-PFnJ-308" style="edgeStyle=orthogonalEdgeStyle;rounded=0;orthogonalLoop=1;jettySize=auto;html=1;exitX=0.5;exitY=1;exitDx=0;exitDy=0;entryX=0.5;entryY=0;entryDx=0;entryDy=0;endArrow=none;endFill=0;fillColor=#f5f5f5;strokeColor=#666666;" edge="1" parent="1" source="wmHboVGkY-6y0HL-PFnJ-309" target="wmHboVGkY-6y0HL-PFnJ-338">
          <mxGeometry relative="1" as="geometry" />
        </mxCell>
        <mxCell id="wmHboVGkY-6y0HL-PFnJ-309" value="F_6 x 2" style="text;html=1;strokeColor=#666666;fillColor=#f5f5f5;align=center;verticalAlign=middle;whiteSpace=wrap;rounded=0;fontColor=#333333;" vertex="1" parent="1">
          <mxGeometry x="3115" y="430" width="60" height="30" as="geometry" />
        </mxCell>
        <mxCell id="wmHboVGkY-6y0HL-PFnJ-310" style="edgeStyle=orthogonalEdgeStyle;rounded=0;orthogonalLoop=1;jettySize=auto;html=1;exitX=1;exitY=0.5;exitDx=0;exitDy=0;entryX=0;entryY=0.5;entryDx=0;entryDy=0;endArrow=none;endFill=0;fillColor=#f5f5f5;strokeColor=#666666;" edge="1" parent="1" source="wmHboVGkY-6y0HL-PFnJ-312" target="wmHboVGkY-6y0HL-PFnJ-315">
          <mxGeometry relative="1" as="geometry">
            <mxPoint x="3335" y="444.9999999999999" as="sourcePoint" />
          </mxGeometry>
        </mxCell>
        <mxCell id="wmHboVGkY-6y0HL-PFnJ-311" style="edgeStyle=orthogonalEdgeStyle;rounded=0;orthogonalLoop=1;jettySize=auto;html=1;exitX=0.5;exitY=1;exitDx=0;exitDy=0;entryX=0.5;entryY=0;entryDx=0;entryDy=0;endArrow=none;endFill=0;fillColor=#f5f5f5;strokeColor=#666666;" edge="1" parent="1" source="wmHboVGkY-6y0HL-PFnJ-312" target="wmHboVGkY-6y0HL-PFnJ-340">
          <mxGeometry relative="1" as="geometry" />
        </mxCell>
        <mxCell id="wmHboVGkY-6y0HL-PFnJ-312" value="F_7" style="text;html=1;strokeColor=#666666;fillColor=#f5f5f5;align=center;verticalAlign=middle;whiteSpace=wrap;rounded=0;fontColor=#333333;" vertex="1" parent="1">
          <mxGeometry x="3195" y="430" width="60" height="30" as="geometry" />
        </mxCell>
        <mxCell id="wmHboVGkY-6y0HL-PFnJ-313" style="edgeStyle=orthogonalEdgeStyle;rounded=0;orthogonalLoop=1;jettySize=auto;html=1;exitX=1;exitY=0.5;exitDx=0;exitDy=0;entryX=0;entryY=0.5;entryDx=0;entryDy=0;endArrow=none;endFill=0;fillColor=#f5f5f5;strokeColor=#666666;" edge="1" parent="1" source="wmHboVGkY-6y0HL-PFnJ-315" target="wmHboVGkY-6y0HL-PFnJ-316">
          <mxGeometry relative="1" as="geometry" />
        </mxCell>
        <mxCell id="wmHboVGkY-6y0HL-PFnJ-314" style="edgeStyle=orthogonalEdgeStyle;rounded=0;orthogonalLoop=1;jettySize=auto;html=1;exitX=0.5;exitY=1;exitDx=0;exitDy=0;entryX=0.5;entryY=0;entryDx=0;entryDy=0;endArrow=none;endFill=0;fillColor=#f5f5f5;strokeColor=#666666;" edge="1" parent="1" source="wmHboVGkY-6y0HL-PFnJ-315" target="wmHboVGkY-6y0HL-PFnJ-341">
          <mxGeometry relative="1" as="geometry" />
        </mxCell>
        <mxCell id="wmHboVGkY-6y0HL-PFnJ-315" value="F_8&amp;nbsp;" style="text;html=1;strokeColor=#666666;fillColor=#f5f5f5;align=center;verticalAlign=middle;whiteSpace=wrap;rounded=0;fontColor=#333333;" vertex="1" parent="1">
          <mxGeometry x="3355" y="430" width="60" height="30" as="geometry" />
        </mxCell>
        <mxCell id="wmHboVGkY-6y0HL-PFnJ-316" value="F_4 x 8&amp;nbsp;" style="text;html=1;strokeColor=#666666;fillColor=#f5f5f5;align=center;verticalAlign=middle;whiteSpace=wrap;rounded=0;fontColor=#333333;" vertex="1" parent="1">
          <mxGeometry x="3435" y="430" width="60" height="30" as="geometry" />
        </mxCell>
        <mxCell id="wmHboVGkY-6y0HL-PFnJ-317" style="edgeStyle=orthogonalEdgeStyle;rounded=0;orthogonalLoop=1;jettySize=auto;html=1;exitX=0.5;exitY=1;exitDx=0;exitDy=0;entryX=0.5;entryY=0;entryDx=0;entryDy=0;endArrow=none;endFill=0;fillColor=#d5e8d4;strokeColor=#82b366;" edge="1" parent="1" source="wmHboVGkY-6y0HL-PFnJ-318" target="wmHboVGkY-6y0HL-PFnJ-321">
          <mxGeometry relative="1" as="geometry" />
        </mxCell>
        <mxCell id="wmHboVGkY-6y0HL-PFnJ-318" value="F_11 x 4" style="text;html=1;strokeColor=#82b366;fillColor=#d5e8d4;align=center;verticalAlign=middle;whiteSpace=wrap;rounded=0;" vertex="1" parent="1">
          <mxGeometry x="2415" y="480" width="60" height="30" as="geometry" />
        </mxCell>
        <mxCell id="wmHboVGkY-6y0HL-PFnJ-319" style="edgeStyle=orthogonalEdgeStyle;rounded=0;orthogonalLoop=1;jettySize=auto;html=1;exitX=1;exitY=0.5;exitDx=0;exitDy=0;entryX=0;entryY=0.5;entryDx=0;entryDy=0;endArrow=none;endFill=0;fillColor=#d5e8d4;strokeColor=#82b366;" edge="1" parent="1" source="wmHboVGkY-6y0HL-PFnJ-321" target="wmHboVGkY-6y0HL-PFnJ-322">
          <mxGeometry relative="1" as="geometry" />
        </mxCell>
        <mxCell id="wmHboVGkY-6y0HL-PFnJ-320" style="edgeStyle=orthogonalEdgeStyle;rounded=0;orthogonalLoop=1;jettySize=auto;html=1;exitX=0.5;exitY=1;exitDx=0;exitDy=0;endArrow=none;endFill=0;fillColor=#d5e8d4;strokeColor=#82b366;" edge="1" parent="1" source="wmHboVGkY-6y0HL-PFnJ-321">
          <mxGeometry relative="1" as="geometry">
            <mxPoint x="2444.8095238095243" y="580" as="targetPoint" />
          </mxGeometry>
        </mxCell>
        <mxCell id="wmHboVGkY-6y0HL-PFnJ-321" value="F_3" style="text;html=1;strokeColor=#82b366;fillColor=#d5e8d4;align=center;verticalAlign=middle;whiteSpace=wrap;rounded=0;" vertex="1" parent="1">
          <mxGeometry x="2415" y="530" width="60" height="30" as="geometry" />
        </mxCell>
        <mxCell id="wmHboVGkY-6y0HL-PFnJ-322" value="I_6 x 0.5" style="text;html=1;strokeColor=#82b366;fillColor=#d5e8d4;align=center;verticalAlign=middle;whiteSpace=wrap;rounded=0;" vertex="1" parent="1">
          <mxGeometry x="2495" y="530" width="60" height="30" as="geometry" />
        </mxCell>
        <mxCell id="wmHboVGkY-6y0HL-PFnJ-323" value="I_3 x 0.5" style="text;html=1;strokeColor=#82b366;fillColor=#d5e8d4;align=center;verticalAlign=middle;whiteSpace=wrap;rounded=0;" vertex="1" parent="1">
          <mxGeometry x="2415" y="580" width="60" height="30" as="geometry" />
        </mxCell>
        <mxCell id="wmHboVGkY-6y0HL-PFnJ-324" style="edgeStyle=orthogonalEdgeStyle;rounded=0;orthogonalLoop=1;jettySize=auto;html=1;exitX=1;exitY=0.5;exitDx=0;exitDy=0;endArrow=none;endFill=0;fillColor=#f5f5f5;strokeColor=#666666;" edge="1" parent="1" source="wmHboVGkY-6y0HL-PFnJ-326">
          <mxGeometry relative="1" as="geometry">
            <mxPoint x="2845" y="494.7241379310344" as="targetPoint" />
          </mxGeometry>
        </mxCell>
        <mxCell id="wmHboVGkY-6y0HL-PFnJ-325" style="edgeStyle=orthogonalEdgeStyle;rounded=0;orthogonalLoop=1;jettySize=auto;html=1;exitX=0.5;exitY=1;exitDx=0;exitDy=0;entryX=0.5;entryY=0;entryDx=0;entryDy=0;endArrow=none;endFill=0;fillColor=#f5f5f5;strokeColor=#666666;" edge="1" parent="1" source="wmHboVGkY-6y0HL-PFnJ-326" target="wmHboVGkY-6y0HL-PFnJ-330">
          <mxGeometry relative="1" as="geometry" />
        </mxCell>
        <mxCell id="wmHboVGkY-6y0HL-PFnJ-326" value="S_5" style="text;html=1;strokeColor=#666666;fillColor=#f5f5f5;align=center;verticalAlign=middle;whiteSpace=wrap;rounded=0;fontColor=#333333;" vertex="1" parent="1">
          <mxGeometry x="2765" y="480" width="60" height="30" as="geometry" />
        </mxCell>
        <mxCell id="wmHboVGkY-6y0HL-PFnJ-327" style="edgeStyle=orthogonalEdgeStyle;rounded=0;orthogonalLoop=1;jettySize=auto;html=1;exitX=1;exitY=0.5;exitDx=0;exitDy=0;entryX=0;entryY=0.5;entryDx=0;entryDy=0;endArrow=none;endFill=0;fillColor=#f5f5f5;strokeColor=#666666;" edge="1" parent="1" source="wmHboVGkY-6y0HL-PFnJ-328" target="wmHboVGkY-6y0HL-PFnJ-350">
          <mxGeometry relative="1" as="geometry" />
        </mxCell>
        <mxCell id="wmHboVGkY-6y0HL-PFnJ-328" value="I_9 x 0.5" style="text;html=1;strokeColor=#666666;fillColor=#f5f5f5;align=center;verticalAlign=middle;whiteSpace=wrap;rounded=0;fontColor=#333333;" vertex="1" parent="1">
          <mxGeometry x="2845" y="480" width="60" height="30" as="geometry" />
        </mxCell>
        <mxCell id="wmHboVGkY-6y0HL-PFnJ-329" style="edgeStyle=orthogonalEdgeStyle;rounded=0;orthogonalLoop=1;jettySize=auto;html=1;exitX=0.5;exitY=1;exitDx=0;exitDy=0;entryX=0.5;entryY=0;entryDx=0;entryDy=0;endArrow=none;endFill=0;fillColor=#f5f5f5;strokeColor=#666666;" edge="1" parent="1" source="wmHboVGkY-6y0HL-PFnJ-330" target="wmHboVGkY-6y0HL-PFnJ-332">
          <mxGeometry relative="1" as="geometry" />
        </mxCell>
        <mxCell id="wmHboVGkY-6y0HL-PFnJ-330" value="S_4" style="text;html=1;strokeColor=#666666;fillColor=#f5f5f5;align=center;verticalAlign=middle;whiteSpace=wrap;rounded=0;fontColor=#333333;" vertex="1" parent="1">
          <mxGeometry x="2765" y="530" width="60" height="30" as="geometry" />
        </mxCell>
        <mxCell id="wmHboVGkY-6y0HL-PFnJ-331" style="edgeStyle=orthogonalEdgeStyle;rounded=0;orthogonalLoop=1;jettySize=auto;html=1;exitX=0.5;exitY=1;exitDx=0;exitDy=0;entryX=0.5;entryY=0;entryDx=0;entryDy=0;endArrow=none;endFill=0;fillColor=#f5f5f5;strokeColor=#666666;" edge="1" parent="1" source="wmHboVGkY-6y0HL-PFnJ-332" target="wmHboVGkY-6y0HL-PFnJ-334">
          <mxGeometry relative="1" as="geometry" />
        </mxCell>
        <mxCell id="wmHboVGkY-6y0HL-PFnJ-332" value="S_3" style="text;html=1;strokeColor=#666666;fillColor=#f5f5f5;align=center;verticalAlign=middle;whiteSpace=wrap;rounded=0;fontColor=#333333;" vertex="1" parent="1">
          <mxGeometry x="2765" y="580" width="60" height="30" as="geometry" />
        </mxCell>
        <mxCell id="wmHboVGkY-6y0HL-PFnJ-333" style="edgeStyle=orthogonalEdgeStyle;rounded=0;orthogonalLoop=1;jettySize=auto;html=1;exitX=0.5;exitY=1;exitDx=0;exitDy=0;entryX=0.5;entryY=0;entryDx=0;entryDy=0;endArrow=none;endFill=0;fillColor=#f5f5f5;strokeColor=#666666;" edge="1" parent="1" source="wmHboVGkY-6y0HL-PFnJ-334" target="wmHboVGkY-6y0HL-PFnJ-336">
          <mxGeometry relative="1" as="geometry" />
        </mxCell>
        <mxCell id="wmHboVGkY-6y0HL-PFnJ-334" value="S_2" style="text;html=1;strokeColor=#666666;fillColor=#f5f5f5;align=center;verticalAlign=middle;whiteSpace=wrap;rounded=0;fontColor=#333333;" vertex="1" parent="1">
          <mxGeometry x="2765" y="630" width="60" height="30" as="geometry" />
        </mxCell>
        <mxCell id="wmHboVGkY-6y0HL-PFnJ-335" style="edgeStyle=orthogonalEdgeStyle;rounded=0;orthogonalLoop=1;jettySize=auto;html=1;exitX=0.5;exitY=1;exitDx=0;exitDy=0;entryX=0.5;entryY=0;entryDx=0;entryDy=0;endArrow=none;endFill=0;fillColor=#f5f5f5;strokeColor=#666666;" edge="1" parent="1" source="wmHboVGkY-6y0HL-PFnJ-336" target="wmHboVGkY-6y0HL-PFnJ-337">
          <mxGeometry relative="1" as="geometry" />
        </mxCell>
        <mxCell id="wmHboVGkY-6y0HL-PFnJ-336" value="S_1" style="text;html=1;strokeColor=#666666;fillColor=#f5f5f5;align=center;verticalAlign=middle;whiteSpace=wrap;rounded=0;fontColor=#333333;" vertex="1" parent="1">
          <mxGeometry x="2765" y="680" width="60" height="30" as="geometry" />
        </mxCell>
        <mxCell id="wmHboVGkY-6y0HL-PFnJ-337" value="I_1 x 0.25" style="text;html=1;strokeColor=#666666;fillColor=#f5f5f5;align=center;verticalAlign=middle;whiteSpace=wrap;rounded=0;fontColor=#333333;" vertex="1" parent="1">
          <mxGeometry x="2765" y="730" width="60" height="30" as="geometry" />
        </mxCell>
        <mxCell id="wmHboVGkY-6y0HL-PFnJ-338" value="I_2 x 0.05&amp;nbsp;" style="text;html=1;strokeColor=#666666;fillColor=#f5f5f5;align=center;verticalAlign=middle;whiteSpace=wrap;rounded=0;fontColor=#333333;" vertex="1" parent="1">
          <mxGeometry x="3115" y="480" width="60" height="30" as="geometry" />
        </mxCell>
        <mxCell id="wmHboVGkY-6y0HL-PFnJ-339" style="edgeStyle=orthogonalEdgeStyle;rounded=0;orthogonalLoop=1;jettySize=auto;html=1;exitX=1;exitY=0.5;exitDx=0;exitDy=0;entryX=0;entryY=0.5;entryDx=0;entryDy=0;endArrow=none;endFill=0;fillColor=#f5f5f5;strokeColor=#666666;" edge="1" parent="1" source="wmHboVGkY-6y0HL-PFnJ-340" target="wmHboVGkY-6y0HL-PFnJ-352">
          <mxGeometry relative="1" as="geometry" />
        </mxCell>
        <mxCell id="wmHboVGkY-6y0HL-PFnJ-340" value="I_3 x 0.05" style="text;html=1;strokeColor=#666666;fillColor=#f5f5f5;align=center;verticalAlign=middle;whiteSpace=wrap;rounded=0;fontColor=#333333;" vertex="1" parent="1">
          <mxGeometry x="3195" y="480" width="60" height="30" as="geometry" />
        </mxCell>
        <mxCell id="wmHboVGkY-6y0HL-PFnJ-341" value="I_2 x 0.05" style="text;html=1;strokeColor=#666666;fillColor=#f5f5f5;align=center;verticalAlign=middle;whiteSpace=wrap;rounded=0;fontColor=#333333;" vertex="1" parent="1">
          <mxGeometry x="3355" y="480" width="60" height="30" as="geometry" />
        </mxCell>
        <mxCell id="wmHboVGkY-6y0HL-PFnJ-342" style="edgeStyle=orthogonalEdgeStyle;rounded=0;orthogonalLoop=1;jettySize=auto;html=1;exitX=1;exitY=0.5;exitDx=0;exitDy=0;entryX=0;entryY=0.5;entryDx=0;entryDy=0;endArrow=none;endFill=0;fillColor=#f5f5f5;strokeColor=#666666;" edge="1" parent="1" source="wmHboVGkY-6y0HL-PFnJ-343" target="wmHboVGkY-6y0HL-PFnJ-353">
          <mxGeometry relative="1" as="geometry" />
        </mxCell>
        <mxCell id="wmHboVGkY-6y0HL-PFnJ-343" value="I_4 x 0.1&amp;nbsp;" style="text;html=1;strokeColor=#666666;fillColor=#f5f5f5;align=center;verticalAlign=middle;whiteSpace=wrap;rounded=0;fontColor=#333333;" vertex="1" parent="1">
          <mxGeometry x="3435" y="480" width="60" height="30" as="geometry" />
        </mxCell>
        <mxCell id="wmHboVGkY-6y0HL-PFnJ-344" style="edgeStyle=orthogonalEdgeStyle;rounded=0;orthogonalLoop=1;jettySize=auto;html=1;exitX=0.5;exitY=1;exitDx=0;exitDy=0;entryX=0.5;entryY=0;entryDx=0;entryDy=0;endArrow=none;endFill=0;fillColor=#f5f5f5;strokeColor=#666666;" edge="1" parent="1" source="wmHboVGkY-6y0HL-PFnJ-316" target="wmHboVGkY-6y0HL-PFnJ-343">
          <mxGeometry relative="1" as="geometry">
            <mxPoint x="3465" y="509.9999999999999" as="sourcePoint" />
          </mxGeometry>
        </mxCell>
        <mxCell id="wmHboVGkY-6y0HL-PFnJ-345" style="edgeStyle=orthogonalEdgeStyle;rounded=0;orthogonalLoop=1;jettySize=auto;html=1;exitX=0.5;exitY=1;exitDx=0;exitDy=0;entryX=0.5;entryY=0;entryDx=0;entryDy=0;endArrow=none;endFill=0;" edge="1" parent="1" source="wmHboVGkY-6y0HL-PFnJ-346" target="wmHboVGkY-6y0HL-PFnJ-348">
          <mxGeometry relative="1" as="geometry">
            <mxPoint x="1825" y="230" as="targetPoint" />
          </mxGeometry>
        </mxCell>
        <mxCell id="wmHboVGkY-6y0HL-PFnJ-346" value="M_15" style="text;html=1;strokeColor=#666666;fillColor=#f5f5f5;align=center;verticalAlign=middle;whiteSpace=wrap;rounded=0;fontColor=#333333;" vertex="1" parent="1">
          <mxGeometry x="1795" y="250" width="60" height="30" as="geometry" />
        </mxCell>
        <mxCell id="wmHboVGkY-6y0HL-PFnJ-347" style="edgeStyle=orthogonalEdgeStyle;rounded=0;orthogonalLoop=1;jettySize=auto;html=1;exitX=0.5;exitY=1;exitDx=0;exitDy=0;entryX=0.5;entryY=0;entryDx=0;entryDy=0;endArrow=none;endFill=0;strokeColor=#82B366;" edge="1" parent="1" source="wmHboVGkY-6y0HL-PFnJ-348" target="wmHboVGkY-6y0HL-PFnJ-268">
          <mxGeometry relative="1" as="geometry" />
        </mxCell>
        <mxCell id="wmHboVGkY-6y0HL-PFnJ-554" value="|" style="edgeStyle=orthogonalEdgeStyle;rounded=0;orthogonalLoop=1;jettySize=auto;html=1;exitX=1;exitY=0.5;exitDx=0;exitDy=0;entryX=0;entryY=0.5;entryDx=0;entryDy=0;fontSize=15;endArrow=none;endFill=0;" edge="1" parent="1" source="wmHboVGkY-6y0HL-PFnJ-348" target="wmHboVGkY-6y0HL-PFnJ-541">
          <mxGeometry relative="1" as="geometry">
            <Array as="points">
              <mxPoint x="1910" y="345" />
              <mxPoint x="1910" y="345" />
            </Array>
          </mxGeometry>
        </mxCell>
        <mxCell id="wmHboVGkY-6y0HL-PFnJ-348" value="M_13" style="text;html=1;strokeColor=#82b366;fillColor=#d5e8d4;align=center;verticalAlign=middle;whiteSpace=wrap;rounded=0;" vertex="1" parent="1">
          <mxGeometry x="1795" y="330" width="60" height="30" as="geometry" />
        </mxCell>
        <mxCell id="wmHboVGkY-6y0HL-PFnJ-349" value="I_4 x 0.05" style="text;html=1;strokeColor=#666666;fillColor=#f5f5f5;align=center;verticalAlign=middle;whiteSpace=wrap;rounded=0;fontColor=#333333;" vertex="1" parent="1">
          <mxGeometry x="2340" y="480" width="60" height="30" as="geometry" />
        </mxCell>
        <mxCell id="wmHboVGkY-6y0HL-PFnJ-350" value="I_7 x 0.125" style="text;html=1;strokeColor=#666666;fillColor=#f5f5f5;align=center;verticalAlign=middle;whiteSpace=wrap;rounded=0;fontColor=#333333;" vertex="1" parent="1">
          <mxGeometry x="2935" y="480" width="70" height="30" as="geometry" />
        </mxCell>
        <mxCell id="wmHboVGkY-6y0HL-PFnJ-351" value="I_4 x 0.05" style="text;html=1;strokeColor=#666666;fillColor=#f5f5f5;align=center;verticalAlign=middle;whiteSpace=wrap;rounded=0;fontColor=#333333;" vertex="1" parent="1">
          <mxGeometry x="3025" y="480" width="60" height="30" as="geometry" />
        </mxCell>
        <mxCell id="wmHboVGkY-6y0HL-PFnJ-352" value="I_6 x 0.05" style="text;html=1;strokeColor=#666666;fillColor=#f5f5f5;align=center;verticalAlign=middle;whiteSpace=wrap;rounded=0;fontColor=#333333;" vertex="1" parent="1">
          <mxGeometry x="3275" y="480" width="60" height="30" as="geometry" />
        </mxCell>
        <mxCell id="wmHboVGkY-6y0HL-PFnJ-353" value="I_6 x 0.05&amp;nbsp;" style="text;html=1;strokeColor=#666666;fillColor=#f5f5f5;align=center;verticalAlign=middle;whiteSpace=wrap;rounded=0;fontColor=#333333;" vertex="1" parent="1">
          <mxGeometry x="3515" y="480" width="60" height="30" as="geometry" />
        </mxCell>
        <mxCell id="wmHboVGkY-6y0HL-PFnJ-435" value="&lt;div style=&quot;font-size: 19px;&quot;&gt;&lt;b style=&quot;font-size: 19px;&quot;&gt;&lt;font style=&quot;font-size: 19px;&quot;&gt;Legenda&lt;/font&gt;&lt;/b&gt;&lt;/div&gt;&lt;div style=&quot;font-size: 19px;&quot;&gt;&lt;span style=&quot;font-size: 19px;&quot;&gt;| - oznacza wybranie 1 lini koloru&amp;nbsp;&lt;/span&gt;&lt;/div&gt;x - oznacza ilośc użytych elementów/materiałów&lt;br style=&quot;font-size: 19px;&quot;&gt;&lt;div style=&quot;font-size: 19px;&quot;&gt;&lt;b style=&quot;font-size: 19px;&quot;&gt;kolor beżowy oznacza stałe elementy/materiały w schemacie&lt;/b&gt;&lt;/div&gt;" style="text;html=1;strokeColor=none;fillColor=none;align=left;verticalAlign=middle;whiteSpace=wrap;rounded=0;fontSize=19;" vertex="1" parent="1">
          <mxGeometry x="2400" y="240" width="550" height="130" as="geometry" />
        </mxCell>
        <mxCell id="wmHboVGkY-6y0HL-PFnJ-530" style="edgeStyle=orthogonalEdgeStyle;rounded=0;orthogonalLoop=1;jettySize=auto;html=1;exitX=0.5;exitY=1;exitDx=0;exitDy=0;endArrow=none;endFill=0;fillColor=#f8cecc;strokeColor=#b85450;" edge="1" parent="1" source="wmHboVGkY-6y0HL-PFnJ-531" target="wmHboVGkY-6y0HL-PFnJ-534">
          <mxGeometry relative="1" as="geometry" />
        </mxCell>
        <mxCell id="wmHboVGkY-6y0HL-PFnJ-583" style="edgeStyle=orthogonalEdgeStyle;rounded=0;orthogonalLoop=1;jettySize=auto;html=1;exitX=1;exitY=0.5;exitDx=0;exitDy=0;entryX=0;entryY=0.5;entryDx=0;entryDy=0;fontSize=15;endArrow=none;endFill=0;strokeColor=#B85450;" edge="1" parent="1" source="wmHboVGkY-6y0HL-PFnJ-531" target="wmHboVGkY-6y0HL-PFnJ-561">
          <mxGeometry relative="1" as="geometry" />
        </mxCell>
        <mxCell id="wmHboVGkY-6y0HL-PFnJ-531" value="M_3" style="text;html=1;strokeColor=#B85450;fillColor=#f8cecc;align=center;verticalAlign=middle;whiteSpace=wrap;rounded=0;" vertex="1" parent="1">
          <mxGeometry x="1955" y="380" width="60" height="30" as="geometry" />
        </mxCell>
        <mxCell id="wmHboVGkY-6y0HL-PFnJ-533" style="edgeStyle=orthogonalEdgeStyle;rounded=0;orthogonalLoop=1;jettySize=auto;html=1;exitX=0.5;exitY=1;exitDx=0;exitDy=0;endArrow=none;endFill=0;fillColor=#f8cecc;strokeColor=#b85450;" edge="1" parent="1" source="wmHboVGkY-6y0HL-PFnJ-534">
          <mxGeometry relative="1" as="geometry">
            <mxPoint x="1984.8095238095243" y="480" as="targetPoint" />
          </mxGeometry>
        </mxCell>
        <mxCell id="wmHboVGkY-6y0HL-PFnJ-584" style="edgeStyle=orthogonalEdgeStyle;rounded=0;orthogonalLoop=1;jettySize=auto;html=1;exitX=1;exitY=0.5;exitDx=0;exitDy=0;entryX=0;entryY=0.5;entryDx=0;entryDy=0;fontSize=15;endArrow=none;endFill=0;strokeColor=#B85450;" edge="1" parent="1" source="wmHboVGkY-6y0HL-PFnJ-534" target="wmHboVGkY-6y0HL-PFnJ-281">
          <mxGeometry relative="1" as="geometry" />
        </mxCell>
        <mxCell id="wmHboVGkY-6y0HL-PFnJ-534" value="F_14" style="text;html=1;strokeColor=#B85450;fillColor=#f8cecc;align=center;verticalAlign=middle;whiteSpace=wrap;rounded=0;" vertex="1" parent="1">
          <mxGeometry x="1955" y="430" width="60" height="30" as="geometry" />
        </mxCell>
        <mxCell id="wmHboVGkY-6y0HL-PFnJ-535" style="edgeStyle=orthogonalEdgeStyle;rounded=0;orthogonalLoop=1;jettySize=auto;html=1;exitX=0.5;exitY=1;exitDx=0;exitDy=0;endArrow=none;endFill=0;fillColor=#f8cecc;strokeColor=#b85450;" edge="1" parent="1" source="wmHboVGkY-6y0HL-PFnJ-536" target="wmHboVGkY-6y0HL-PFnJ-538">
          <mxGeometry relative="1" as="geometry" />
        </mxCell>
        <mxCell id="wmHboVGkY-6y0HL-PFnJ-536" value="F_10 x 5" style="text;html=1;strokeColor=#b85450;fillColor=#f8cecc;align=center;verticalAlign=middle;whiteSpace=wrap;rounded=0;" vertex="1" parent="1">
          <mxGeometry x="1955" y="480" width="60" height="30" as="geometry" />
        </mxCell>
        <mxCell id="wmHboVGkY-6y0HL-PFnJ-537" style="edgeStyle=orthogonalEdgeStyle;rounded=0;orthogonalLoop=1;jettySize=auto;html=1;exitX=0.5;exitY=1;exitDx=0;exitDy=0;endArrow=none;endFill=0;fillColor=#f8cecc;strokeColor=#b85450;" edge="1" parent="1" source="wmHboVGkY-6y0HL-PFnJ-538">
          <mxGeometry relative="1" as="geometry">
            <mxPoint x="1984.8095238095243" y="580" as="targetPoint" />
          </mxGeometry>
        </mxCell>
        <mxCell id="wmHboVGkY-6y0HL-PFnJ-538" value="F_2" style="text;html=1;strokeColor=#b85450;fillColor=#f8cecc;align=center;verticalAlign=middle;whiteSpace=wrap;rounded=0;" vertex="1" parent="1">
          <mxGeometry x="1955" y="530" width="60" height="30" as="geometry" />
        </mxCell>
        <mxCell id="wmHboVGkY-6y0HL-PFnJ-539" value="I_2 x 0.5" style="text;html=1;strokeColor=#b85450;fillColor=#f8cecc;align=center;verticalAlign=middle;whiteSpace=wrap;rounded=0;" vertex="1" parent="1">
          <mxGeometry x="1955" y="580" width="60" height="30" as="geometry" />
        </mxCell>
        <mxCell id="wmHboVGkY-6y0HL-PFnJ-540" style="edgeStyle=orthogonalEdgeStyle;rounded=0;orthogonalLoop=1;jettySize=auto;html=1;exitX=0.5;exitY=1;exitDx=0;exitDy=0;entryX=0.5;entryY=0;entryDx=0;entryDy=0;endArrow=none;endFill=0;fillColor=#f8cecc;strokeColor=#b85450;" edge="1" parent="1" source="wmHboVGkY-6y0HL-PFnJ-541" target="wmHboVGkY-6y0HL-PFnJ-531">
          <mxGeometry relative="1" as="geometry" />
        </mxCell>
        <mxCell id="wmHboVGkY-6y0HL-PFnJ-555" value="|" style="edgeStyle=orthogonalEdgeStyle;rounded=0;orthogonalLoop=1;jettySize=auto;html=1;exitX=1;exitY=0.5;exitDx=0;exitDy=0;entryX=0;entryY=0.5;entryDx=0;entryDy=0;fontSize=15;endArrow=none;endFill=0;" edge="1" parent="1" source="wmHboVGkY-6y0HL-PFnJ-541" target="wmHboVGkY-6y0HL-PFnJ-552">
          <mxGeometry relative="1" as="geometry" />
        </mxCell>
        <mxCell id="wmHboVGkY-6y0HL-PFnJ-541" value="M_12" style="text;html=1;strokeColor=#b85450;fillColor=#f8cecc;align=center;verticalAlign=middle;whiteSpace=wrap;rounded=0;" vertex="1" parent="1">
          <mxGeometry x="1955" y="330" width="60" height="30" as="geometry" />
        </mxCell>
        <mxCell id="wmHboVGkY-6y0HL-PFnJ-542" style="edgeStyle=orthogonalEdgeStyle;rounded=0;orthogonalLoop=1;jettySize=auto;html=1;exitX=0.5;exitY=1;exitDx=0;exitDy=0;endArrow=none;endFill=0;fillColor=#dae8fc;strokeColor=#6c8ebf;" edge="1" parent="1" source="wmHboVGkY-6y0HL-PFnJ-543" target="wmHboVGkY-6y0HL-PFnJ-545">
          <mxGeometry relative="1" as="geometry" />
        </mxCell>
        <mxCell id="wmHboVGkY-6y0HL-PFnJ-587" style="edgeStyle=orthogonalEdgeStyle;rounded=0;orthogonalLoop=1;jettySize=auto;html=1;exitX=1;exitY=0.75;exitDx=0;exitDy=0;entryX=0;entryY=0.75;entryDx=0;entryDy=0;fontSize=15;endArrow=none;endFill=0;strokeColor=#6C8EBF;" edge="1" parent="1" source="wmHboVGkY-6y0HL-PFnJ-543" target="wmHboVGkY-6y0HL-PFnJ-575">
          <mxGeometry relative="1" as="geometry" />
        </mxCell>
        <mxCell id="wmHboVGkY-6y0HL-PFnJ-543" value="M_1" style="text;html=1;strokeColor=#6C8EBF;fillColor=#dae8fc;align=center;verticalAlign=middle;whiteSpace=wrap;rounded=0;" vertex="1" parent="1">
          <mxGeometry x="2100" y="380" width="60" height="30" as="geometry" />
        </mxCell>
        <mxCell id="wmHboVGkY-6y0HL-PFnJ-544" style="edgeStyle=orthogonalEdgeStyle;rounded=0;orthogonalLoop=1;jettySize=auto;html=1;exitX=0.5;exitY=1;exitDx=0;exitDy=0;endArrow=none;endFill=0;fillColor=#dae8fc;strokeColor=#6c8ebf;" edge="1" parent="1" source="wmHboVGkY-6y0HL-PFnJ-545">
          <mxGeometry relative="1" as="geometry">
            <mxPoint x="2129.8095238095243" y="480" as="targetPoint" />
          </mxGeometry>
        </mxCell>
        <mxCell id="wmHboVGkY-6y0HL-PFnJ-590" style="edgeStyle=orthogonalEdgeStyle;rounded=0;orthogonalLoop=1;jettySize=auto;html=1;exitX=1;exitY=0.75;exitDx=0;exitDy=0;entryX=0;entryY=0.75;entryDx=0;entryDy=0;fontSize=15;endArrow=none;endFill=0;strokeColor=#6C8EBF;" edge="1" parent="1" source="wmHboVGkY-6y0HL-PFnJ-545" target="wmHboVGkY-6y0HL-PFnJ-281">
          <mxGeometry relative="1" as="geometry" />
        </mxCell>
        <mxCell id="wmHboVGkY-6y0HL-PFnJ-545" value="F_12" style="text;html=1;strokeColor=#6c8ebf;fillColor=#dae8fc;align=center;verticalAlign=middle;whiteSpace=wrap;rounded=0;" vertex="1" parent="1">
          <mxGeometry x="2100" y="430" width="60" height="30" as="geometry" />
        </mxCell>
        <mxCell id="wmHboVGkY-6y0HL-PFnJ-546" style="edgeStyle=orthogonalEdgeStyle;rounded=0;orthogonalLoop=1;jettySize=auto;html=1;exitX=0.5;exitY=1;exitDx=0;exitDy=0;endArrow=none;endFill=0;fillColor=#dae8fc;strokeColor=#6c8ebf;" edge="1" parent="1" source="wmHboVGkY-6y0HL-PFnJ-547" target="wmHboVGkY-6y0HL-PFnJ-549">
          <mxGeometry relative="1" as="geometry" />
        </mxCell>
        <mxCell id="wmHboVGkY-6y0HL-PFnJ-547" value="F_9 x 5" style="text;html=1;strokeColor=#6c8ebf;fillColor=#dae8fc;align=center;verticalAlign=middle;whiteSpace=wrap;rounded=0;" vertex="1" parent="1">
          <mxGeometry x="2100" y="480" width="60" height="30" as="geometry" />
        </mxCell>
        <mxCell id="wmHboVGkY-6y0HL-PFnJ-548" style="edgeStyle=orthogonalEdgeStyle;rounded=0;orthogonalLoop=1;jettySize=auto;html=1;exitX=0.5;exitY=1;exitDx=0;exitDy=0;endArrow=none;endFill=0;fillColor=#dae8fc;strokeColor=#6c8ebf;" edge="1" parent="1" source="wmHboVGkY-6y0HL-PFnJ-549">
          <mxGeometry relative="1" as="geometry">
            <mxPoint x="2129.8095238095243" y="580" as="targetPoint" />
          </mxGeometry>
        </mxCell>
        <mxCell id="wmHboVGkY-6y0HL-PFnJ-549" value="F_1" style="text;html=1;strokeColor=#6c8ebf;fillColor=#dae8fc;align=center;verticalAlign=middle;whiteSpace=wrap;rounded=0;" vertex="1" parent="1">
          <mxGeometry x="2100" y="530" width="60" height="30" as="geometry" />
        </mxCell>
        <mxCell id="wmHboVGkY-6y0HL-PFnJ-550" value="I_4 x 0.5" style="text;html=1;strokeColor=#6c8ebf;fillColor=#dae8fc;align=center;verticalAlign=middle;whiteSpace=wrap;rounded=0;" vertex="1" parent="1">
          <mxGeometry x="2100" y="580" width="60" height="30" as="geometry" />
        </mxCell>
        <mxCell id="wmHboVGkY-6y0HL-PFnJ-551" style="edgeStyle=orthogonalEdgeStyle;rounded=0;orthogonalLoop=1;jettySize=auto;html=1;exitX=0.5;exitY=1;exitDx=0;exitDy=0;entryX=0.5;entryY=0;entryDx=0;entryDy=0;endArrow=none;endFill=0;fillColor=#dae8fc;strokeColor=#6c8ebf;" edge="1" parent="1" source="wmHboVGkY-6y0HL-PFnJ-552" target="wmHboVGkY-6y0HL-PFnJ-543">
          <mxGeometry relative="1" as="geometry" />
        </mxCell>
        <mxCell id="wmHboVGkY-6y0HL-PFnJ-552" value="M_11" style="text;html=1;strokeColor=#6c8ebf;fillColor=#dae8fc;align=center;verticalAlign=middle;whiteSpace=wrap;rounded=0;" vertex="1" parent="1">
          <mxGeometry x="2100" y="330" width="60" height="30" as="geometry" />
        </mxCell>
        <mxCell id="wmHboVGkY-6y0HL-PFnJ-560" style="edgeStyle=orthogonalEdgeStyle;rounded=0;orthogonalLoop=1;jettySize=auto;html=1;exitX=0.5;exitY=1;exitDx=0;exitDy=0;endArrow=none;endFill=0;fillColor=#f8cecc;strokeColor=#b85450;" edge="1" parent="1" source="wmHboVGkY-6y0HL-PFnJ-561" target="wmHboVGkY-6y0HL-PFnJ-563">
          <mxGeometry relative="1" as="geometry" />
        </mxCell>
        <mxCell id="wmHboVGkY-6y0HL-PFnJ-585" style="edgeStyle=orthogonalEdgeStyle;rounded=0;orthogonalLoop=1;jettySize=auto;html=1;exitX=1;exitY=0.5;exitDx=0;exitDy=0;entryX=0;entryY=0.5;entryDx=0;entryDy=0;fontSize=15;endArrow=none;endFill=0;strokeColor=#B85450;" edge="1" parent="1" source="wmHboVGkY-6y0HL-PFnJ-561" target="wmHboVGkY-6y0HL-PFnJ-290">
          <mxGeometry relative="1" as="geometry" />
        </mxCell>
        <mxCell id="wmHboVGkY-6y0HL-PFnJ-561" value="M_4 x 2" style="text;html=1;strokeColor=#b85450;fillColor=#f8cecc;align=center;verticalAlign=middle;whiteSpace=wrap;rounded=0;" vertex="1" parent="1">
          <mxGeometry x="2570" y="380" width="60" height="30" as="geometry" />
        </mxCell>
        <mxCell id="wmHboVGkY-6y0HL-PFnJ-562" style="edgeStyle=orthogonalEdgeStyle;rounded=0;orthogonalLoop=1;jettySize=auto;html=1;exitX=0.5;exitY=1;exitDx=0;exitDy=0;entryX=0.5;entryY=0;entryDx=0;entryDy=0;endArrow=none;endFill=0;fillColor=#f8cecc;strokeColor=#b85450;" edge="1" parent="1" source="wmHboVGkY-6y0HL-PFnJ-563" target="wmHboVGkY-6y0HL-PFnJ-565">
          <mxGeometry relative="1" as="geometry" />
        </mxCell>
        <mxCell id="wmHboVGkY-6y0HL-PFnJ-586" style="edgeStyle=orthogonalEdgeStyle;rounded=0;orthogonalLoop=1;jettySize=auto;html=1;exitX=1;exitY=0.5;exitDx=0;exitDy=0;entryX=0;entryY=0.5;entryDx=0;entryDy=0;fontSize=15;endArrow=none;endFill=0;strokeColor=#B85450;" edge="1" parent="1" source="wmHboVGkY-6y0HL-PFnJ-563" target="wmHboVGkY-6y0HL-PFnJ-303">
          <mxGeometry relative="1" as="geometry" />
        </mxCell>
        <mxCell id="wmHboVGkY-6y0HL-PFnJ-563" value="F_15" style="text;html=1;strokeColor=#b85450;fillColor=#f8cecc;align=center;verticalAlign=middle;whiteSpace=wrap;rounded=0;" vertex="1" parent="1">
          <mxGeometry x="2570" y="430" width="60" height="30" as="geometry" />
        </mxCell>
        <mxCell id="wmHboVGkY-6y0HL-PFnJ-564" style="edgeStyle=orthogonalEdgeStyle;rounded=0;orthogonalLoop=1;jettySize=auto;html=1;exitX=0.5;exitY=1;exitDx=0;exitDy=0;entryX=0.5;entryY=0;entryDx=0;entryDy=0;endArrow=none;endFill=0;fillColor=#f8cecc;strokeColor=#b85450;" edge="1" parent="1" source="wmHboVGkY-6y0HL-PFnJ-565" target="wmHboVGkY-6y0HL-PFnJ-567">
          <mxGeometry relative="1" as="geometry" />
        </mxCell>
        <mxCell id="wmHboVGkY-6y0HL-PFnJ-565" value="F_10 x 4" style="text;html=1;strokeColor=#b85450;fillColor=#f8cecc;align=center;verticalAlign=middle;whiteSpace=wrap;rounded=0;" vertex="1" parent="1">
          <mxGeometry x="2570" y="480" width="60" height="30" as="geometry" />
        </mxCell>
        <mxCell id="wmHboVGkY-6y0HL-PFnJ-566" style="edgeStyle=orthogonalEdgeStyle;rounded=0;orthogonalLoop=1;jettySize=auto;html=1;exitX=0.5;exitY=1;exitDx=0;exitDy=0;endArrow=none;endFill=0;fillColor=#f8cecc;strokeColor=#b85450;" edge="1" parent="1" source="wmHboVGkY-6y0HL-PFnJ-567">
          <mxGeometry relative="1" as="geometry">
            <mxPoint x="2599.8095238095243" y="580" as="targetPoint" />
          </mxGeometry>
        </mxCell>
        <mxCell id="wmHboVGkY-6y0HL-PFnJ-567" value="F_2" style="text;html=1;strokeColor=#b85450;fillColor=#f8cecc;align=center;verticalAlign=middle;whiteSpace=wrap;rounded=0;" vertex="1" parent="1">
          <mxGeometry x="2570" y="530" width="60" height="30" as="geometry" />
        </mxCell>
        <mxCell id="wmHboVGkY-6y0HL-PFnJ-568" value="I_2 x 0.5" style="text;html=1;strokeColor=#b85450;fillColor=#f8cecc;align=center;verticalAlign=middle;whiteSpace=wrap;rounded=0;" vertex="1" parent="1">
          <mxGeometry x="2570" y="580" width="60" height="30" as="geometry" />
        </mxCell>
        <mxCell id="wmHboVGkY-6y0HL-PFnJ-574" style="edgeStyle=orthogonalEdgeStyle;rounded=0;orthogonalLoop=1;jettySize=auto;html=1;exitX=0.5;exitY=1;exitDx=0;exitDy=0;endArrow=none;endFill=0;fillColor=#dae8fc;strokeColor=#6c8ebf;" edge="1" parent="1" source="wmHboVGkY-6y0HL-PFnJ-575" target="wmHboVGkY-6y0HL-PFnJ-577">
          <mxGeometry relative="1" as="geometry" />
        </mxCell>
        <mxCell id="wmHboVGkY-6y0HL-PFnJ-588" style="edgeStyle=orthogonalEdgeStyle;rounded=0;orthogonalLoop=1;jettySize=auto;html=1;exitX=1;exitY=0.75;exitDx=0;exitDy=0;entryX=0;entryY=0.75;entryDx=0;entryDy=0;fontSize=15;endArrow=none;endFill=0;strokeColor=#6C8EBF;" edge="1" parent="1" source="wmHboVGkY-6y0HL-PFnJ-575" target="wmHboVGkY-6y0HL-PFnJ-290">
          <mxGeometry relative="1" as="geometry" />
        </mxCell>
        <mxCell id="wmHboVGkY-6y0HL-PFnJ-575" value="M_2 x 2" style="text;html=1;strokeColor=#6c8ebf;fillColor=#dae8fc;align=center;verticalAlign=middle;whiteSpace=wrap;rounded=0;" vertex="1" parent="1">
          <mxGeometry x="2665" y="380" width="60" height="30" as="geometry" />
        </mxCell>
        <mxCell id="wmHboVGkY-6y0HL-PFnJ-576" style="edgeStyle=orthogonalEdgeStyle;rounded=0;orthogonalLoop=1;jettySize=auto;html=1;exitX=0.5;exitY=1;exitDx=0;exitDy=0;entryX=0.5;entryY=0;entryDx=0;entryDy=0;endArrow=none;endFill=0;fillColor=#dae8fc;strokeColor=#6c8ebf;" edge="1" parent="1" source="wmHboVGkY-6y0HL-PFnJ-577" target="wmHboVGkY-6y0HL-PFnJ-579">
          <mxGeometry relative="1" as="geometry" />
        </mxCell>
        <mxCell id="wmHboVGkY-6y0HL-PFnJ-589" style="edgeStyle=orthogonalEdgeStyle;rounded=0;orthogonalLoop=1;jettySize=auto;html=1;exitX=1;exitY=0.75;exitDx=0;exitDy=0;entryX=0;entryY=0.75;entryDx=0;entryDy=0;fontSize=15;endArrow=none;endFill=0;strokeColor=#6C8EBF;" edge="1" parent="1" source="wmHboVGkY-6y0HL-PFnJ-577" target="wmHboVGkY-6y0HL-PFnJ-303">
          <mxGeometry relative="1" as="geometry" />
        </mxCell>
        <mxCell id="wmHboVGkY-6y0HL-PFnJ-577" value="F_13" style="text;html=1;strokeColor=#6c8ebf;fillColor=#dae8fc;align=center;verticalAlign=middle;whiteSpace=wrap;rounded=0;" vertex="1" parent="1">
          <mxGeometry x="2665" y="430" width="60" height="30" as="geometry" />
        </mxCell>
        <mxCell id="wmHboVGkY-6y0HL-PFnJ-578" style="edgeStyle=orthogonalEdgeStyle;rounded=0;orthogonalLoop=1;jettySize=auto;html=1;exitX=0.5;exitY=1;exitDx=0;exitDy=0;entryX=0.5;entryY=0;entryDx=0;entryDy=0;endArrow=none;endFill=0;fillColor=#dae8fc;strokeColor=#6c8ebf;" edge="1" parent="1" source="wmHboVGkY-6y0HL-PFnJ-579" target="wmHboVGkY-6y0HL-PFnJ-581">
          <mxGeometry relative="1" as="geometry" />
        </mxCell>
        <mxCell id="wmHboVGkY-6y0HL-PFnJ-579" value="F_9 x 4" style="text;html=1;strokeColor=#6c8ebf;fillColor=#dae8fc;align=center;verticalAlign=middle;whiteSpace=wrap;rounded=0;" vertex="1" parent="1">
          <mxGeometry x="2665" y="480" width="60" height="30" as="geometry" />
        </mxCell>
        <mxCell id="wmHboVGkY-6y0HL-PFnJ-580" style="edgeStyle=orthogonalEdgeStyle;rounded=0;orthogonalLoop=1;jettySize=auto;html=1;exitX=0.5;exitY=1;exitDx=0;exitDy=0;endArrow=none;endFill=0;fillColor=#dae8fc;strokeColor=#6c8ebf;" edge="1" parent="1" source="wmHboVGkY-6y0HL-PFnJ-581">
          <mxGeometry relative="1" as="geometry">
            <mxPoint x="2694.8095238095243" y="580" as="targetPoint" />
          </mxGeometry>
        </mxCell>
        <mxCell id="wmHboVGkY-6y0HL-PFnJ-581" value="F_1" style="text;html=1;strokeColor=#6c8ebf;fillColor=#dae8fc;align=center;verticalAlign=middle;whiteSpace=wrap;rounded=0;" vertex="1" parent="1">
          <mxGeometry x="2665" y="530" width="60" height="30" as="geometry" />
        </mxCell>
        <mxCell id="wmHboVGkY-6y0HL-PFnJ-582" value="I_4 x 0.5" style="text;html=1;strokeColor=#6c8ebf;fillColor=#dae8fc;align=center;verticalAlign=middle;whiteSpace=wrap;rounded=0;" vertex="1" parent="1">
          <mxGeometry x="2665" y="580" width="60" height="30" as="geometry" />
        </mxCell>
        <mxCell id="wmHboVGkY-6y0HL-PFnJ-272" value="M_6 x 2" style="text;html=1;strokeColor=#82b366;fillColor=#d5e8d4;align=center;verticalAlign=middle;whiteSpace=wrap;rounded=0;perimeterSpacing=1;" vertex="1" parent="1">
          <mxGeometry x="2415" y="380" width="60" height="30" as="geometry" />
        </mxCell>
        <mxCell id="wmHboVGkY-6y0HL-PFnJ-602" style="edgeStyle=orthogonalEdgeStyle;rounded=0;orthogonalLoop=1;jettySize=auto;html=1;exitX=0.5;exitY=1;exitDx=0;exitDy=0;entryX=0.5;entryY=0;entryDx=0;entryDy=0;endArrow=none;endFill=0;" edge="1" parent="1" source="wmHboVGkY-6y0HL-PFnJ-603" target="wmHboVGkY-6y0HL-PFnJ-606">
          <mxGeometry relative="1" as="geometry">
            <mxPoint x="1832.5" y="690" as="targetPoint" />
          </mxGeometry>
        </mxCell>
        <mxCell id="wmHboVGkY-6y0HL-PFnJ-603" value="M_14" style="text;html=1;strokeColor=#666666;fillColor=#f5f5f5;align=center;verticalAlign=middle;whiteSpace=wrap;rounded=0;fontColor=#333333;" vertex="1" parent="1">
          <mxGeometry x="1802.5" y="740" width="60" height="30" as="geometry" />
        </mxCell>
        <mxCell id="wmHboVGkY-6y0HL-PFnJ-635" style="edgeStyle=orthogonalEdgeStyle;rounded=0;orthogonalLoop=1;jettySize=auto;html=1;exitX=1;exitY=0.5;exitDx=0;exitDy=0;entryX=0;entryY=0.5;entryDx=0;entryDy=0;fontSize=19;endArrow=none;endFill=0;strokeColor=#000000;" edge="1" parent="1" source="wmHboVGkY-6y0HL-PFnJ-606" target="wmHboVGkY-6y0HL-PFnJ-631">
          <mxGeometry relative="1" as="geometry" />
        </mxCell>
        <mxCell id="wmHboVGkY-6y0HL-PFnJ-638" style="edgeStyle=orthogonalEdgeStyle;rounded=0;orthogonalLoop=1;jettySize=auto;html=1;exitX=0.5;exitY=1;exitDx=0;exitDy=0;entryX=0.5;entryY=0;entryDx=0;entryDy=0;fontSize=19;endArrow=none;endFill=0;strokeColor=#000000;" edge="1" parent="1" source="wmHboVGkY-6y0HL-PFnJ-606" target="wmHboVGkY-6y0HL-PFnJ-636">
          <mxGeometry relative="1" as="geometry" />
        </mxCell>
        <mxCell id="wmHboVGkY-6y0HL-PFnJ-606" value="M_10" style="text;html=1;strokeColor=#666666;fillColor=#f5f5f5;align=center;verticalAlign=middle;whiteSpace=wrap;rounded=0;fontColor=#333333;" vertex="1" parent="1">
          <mxGeometry x="1802.5" y="790" width="60" height="30" as="geometry" />
        </mxCell>
        <mxCell id="wmHboVGkY-6y0HL-PFnJ-630" style="edgeStyle=orthogonalEdgeStyle;rounded=0;orthogonalLoop=1;jettySize=auto;html=1;exitX=1;exitY=0.5;exitDx=0;exitDy=0;entryX=0;entryY=0.5;entryDx=0;entryDy=0;endArrow=none;endFill=0;" edge="1" parent="1" source="wmHboVGkY-6y0HL-PFnJ-631" target="wmHboVGkY-6y0HL-PFnJ-633">
          <mxGeometry relative="1" as="geometry" />
        </mxCell>
        <mxCell id="wmHboVGkY-6y0HL-PFnJ-631" value="I_8 x 8" style="text;html=1;strokeColor=#666666;fillColor=#f5f5f5;align=center;verticalAlign=middle;whiteSpace=wrap;rounded=0;fontColor=#333333;" vertex="1" parent="1">
          <mxGeometry x="1890" y="790" width="60" height="30" as="geometry" />
        </mxCell>
        <mxCell id="wmHboVGkY-6y0HL-PFnJ-632" style="edgeStyle=orthogonalEdgeStyle;rounded=0;orthogonalLoop=1;jettySize=auto;html=1;exitX=1;exitY=0.5;exitDx=0;exitDy=0;entryX=0;entryY=0.5;entryDx=0;entryDy=0;endArrow=none;endFill=0;fillColor=#f5f5f5;strokeColor=#666666;" edge="1" parent="1" source="wmHboVGkY-6y0HL-PFnJ-633" target="wmHboVGkY-6y0HL-PFnJ-634">
          <mxGeometry relative="1" as="geometry" />
        </mxCell>
        <mxCell id="wmHboVGkY-6y0HL-PFnJ-633" value="I_10 x 16" style="text;html=1;strokeColor=#666666;fillColor=#f5f5f5;align=center;verticalAlign=middle;whiteSpace=wrap;rounded=0;fontColor=#333333;" vertex="1" parent="1">
          <mxGeometry x="1980" y="790" width="60" height="30" as="geometry" />
        </mxCell>
        <mxCell id="wmHboVGkY-6y0HL-PFnJ-634" value="I_5 x 8&amp;nbsp;" style="text;html=1;strokeColor=#666666;fillColor=#f5f5f5;align=center;verticalAlign=middle;whiteSpace=wrap;rounded=0;fontColor=#333333;" vertex="1" parent="1">
          <mxGeometry x="2068" y="790" width="60" height="30" as="geometry" />
        </mxCell>
        <mxCell id="wmHboVGkY-6y0HL-PFnJ-639" style="edgeStyle=orthogonalEdgeStyle;rounded=0;orthogonalLoop=1;jettySize=auto;html=1;exitX=1;exitY=0.5;exitDx=0;exitDy=0;entryX=0;entryY=0.5;entryDx=0;entryDy=0;fontSize=19;endArrow=none;endFill=0;strokeColor=#000000;" edge="1" parent="1" source="wmHboVGkY-6y0HL-PFnJ-636" target="wmHboVGkY-6y0HL-PFnJ-637">
          <mxGeometry relative="1" as="geometry" />
        </mxCell>
        <mxCell id="wmHboVGkY-6y0HL-PFnJ-641" style="edgeStyle=orthogonalEdgeStyle;rounded=0;orthogonalLoop=1;jettySize=auto;html=1;exitX=0.5;exitY=1;exitDx=0;exitDy=0;entryX=0.5;entryY=0;entryDx=0;entryDy=0;fontSize=19;endArrow=none;endFill=0;strokeColor=#000000;" edge="1" parent="1" source="wmHboVGkY-6y0HL-PFnJ-636" target="wmHboVGkY-6y0HL-PFnJ-640">
          <mxGeometry relative="1" as="geometry" />
        </mxCell>
        <mxCell id="wmHboVGkY-6y0HL-PFnJ-636" value="M_9 x 12" style="text;html=1;strokeColor=#666666;fillColor=#f5f5f5;align=center;verticalAlign=middle;whiteSpace=wrap;rounded=0;fontColor=#333333;" vertex="1" parent="1">
          <mxGeometry x="1802.5" y="840" width="60" height="30" as="geometry" />
        </mxCell>
        <mxCell id="wmHboVGkY-6y0HL-PFnJ-693" style="edgeStyle=orthogonalEdgeStyle;rounded=0;orthogonalLoop=1;jettySize=auto;html=1;exitX=0.5;exitY=1;exitDx=0;exitDy=0;entryX=0.5;entryY=0;entryDx=0;entryDy=0;fontSize=19;endArrow=none;endFill=0;strokeColor=#000000;" edge="1" parent="1" source="wmHboVGkY-6y0HL-PFnJ-637" target="wmHboVGkY-6y0HL-PFnJ-689">
          <mxGeometry relative="1" as="geometry" />
        </mxCell>
        <mxCell id="wmHboVGkY-6y0HL-PFnJ-637" value="F_19" style="text;html=1;strokeColor=#666666;fillColor=#f5f5f5;align=center;verticalAlign=middle;whiteSpace=wrap;rounded=0;fontColor=#333333;" vertex="1" parent="1">
          <mxGeometry x="2440" y="840" width="60" height="30" as="geometry" />
        </mxCell>
        <mxCell id="wmHboVGkY-6y0HL-PFnJ-643" style="edgeStyle=orthogonalEdgeStyle;rounded=0;orthogonalLoop=1;jettySize=auto;html=1;exitX=1;exitY=0.5;exitDx=0;exitDy=0;entryX=0;entryY=0.5;entryDx=0;entryDy=0;fontSize=19;endArrow=none;endFill=0;strokeColor=#000000;" edge="1" parent="1" source="wmHboVGkY-6y0HL-PFnJ-640" target="wmHboVGkY-6y0HL-PFnJ-642">
          <mxGeometry relative="1" as="geometry" />
        </mxCell>
        <mxCell id="wmHboVGkY-6y0HL-PFnJ-645" style="edgeStyle=orthogonalEdgeStyle;rounded=0;orthogonalLoop=1;jettySize=auto;html=1;exitX=0.5;exitY=1;exitDx=0;exitDy=0;entryX=0.5;entryY=0;entryDx=0;entryDy=0;fontSize=19;endArrow=none;endFill=0;strokeColor=#000000;" edge="1" parent="1" source="wmHboVGkY-6y0HL-PFnJ-640" target="wmHboVGkY-6y0HL-PFnJ-644">
          <mxGeometry relative="1" as="geometry" />
        </mxCell>
        <mxCell id="wmHboVGkY-6y0HL-PFnJ-640" value="M_8" style="text;html=1;strokeColor=#666666;fillColor=#f5f5f5;align=center;verticalAlign=middle;whiteSpace=wrap;rounded=0;fontColor=#333333;" vertex="1" parent="1">
          <mxGeometry x="1802.5" y="890" width="60" height="30" as="geometry" />
        </mxCell>
        <mxCell id="wmHboVGkY-6y0HL-PFnJ-687" style="edgeStyle=orthogonalEdgeStyle;rounded=0;orthogonalLoop=1;jettySize=auto;html=1;exitX=0.5;exitY=1;exitDx=0;exitDy=0;entryX=0.5;entryY=0;entryDx=0;entryDy=0;fontSize=19;endArrow=none;endFill=0;strokeColor=#000000;" edge="1" parent="1" source="wmHboVGkY-6y0HL-PFnJ-642" target="wmHboVGkY-6y0HL-PFnJ-683">
          <mxGeometry relative="1" as="geometry" />
        </mxCell>
        <mxCell id="wmHboVGkY-6y0HL-PFnJ-642" value="F_23" style="text;html=1;strokeColor=#666666;fillColor=#f5f5f5;align=center;verticalAlign=middle;whiteSpace=wrap;rounded=0;fontColor=#333333;" vertex="1" parent="1">
          <mxGeometry x="2340" y="890" width="60" height="30" as="geometry" />
        </mxCell>
        <mxCell id="wmHboVGkY-6y0HL-PFnJ-647" style="edgeStyle=orthogonalEdgeStyle;rounded=0;orthogonalLoop=1;jettySize=auto;html=1;exitX=1;exitY=0.5;exitDx=0;exitDy=0;entryX=0;entryY=0.5;entryDx=0;entryDy=0;fontSize=19;endArrow=none;endFill=0;strokeColor=#000000;" edge="1" parent="1" source="wmHboVGkY-6y0HL-PFnJ-644" target="wmHboVGkY-6y0HL-PFnJ-646">
          <mxGeometry relative="1" as="geometry" />
        </mxCell>
        <mxCell id="wmHboVGkY-6y0HL-PFnJ-653" style="edgeStyle=orthogonalEdgeStyle;rounded=0;orthogonalLoop=1;jettySize=auto;html=1;exitX=0.5;exitY=1;exitDx=0;exitDy=0;entryX=0.5;entryY=0;entryDx=0;entryDy=0;fontSize=19;endArrow=none;endFill=0;strokeColor=#000000;" edge="1" parent="1" source="wmHboVGkY-6y0HL-PFnJ-644" target="wmHboVGkY-6y0HL-PFnJ-648">
          <mxGeometry relative="1" as="geometry" />
        </mxCell>
        <mxCell id="wmHboVGkY-6y0HL-PFnJ-644" value="M_7" style="text;html=1;strokeColor=#666666;fillColor=#f5f5f5;align=center;verticalAlign=middle;whiteSpace=wrap;rounded=0;fontColor=#333333;" vertex="1" parent="1">
          <mxGeometry x="1802.5" y="940" width="60" height="30" as="geometry" />
        </mxCell>
        <mxCell id="wmHboVGkY-6y0HL-PFnJ-681" style="edgeStyle=orthogonalEdgeStyle;rounded=0;orthogonalLoop=1;jettySize=auto;html=1;exitX=0.5;exitY=1;exitDx=0;exitDy=0;entryX=0.5;entryY=0;entryDx=0;entryDy=0;fontSize=19;endArrow=none;endFill=0;strokeColor=#000000;" edge="1" parent="1" target="wmHboVGkY-6y0HL-PFnJ-668">
          <mxGeometry relative="1" as="geometry">
            <mxPoint x="2098" y="960" as="sourcePoint" />
          </mxGeometry>
        </mxCell>
        <mxCell id="wmHboVGkY-6y0HL-PFnJ-646" value="S_6 x 3" style="text;html=1;strokeColor=#666666;fillColor=#f5f5f5;align=center;verticalAlign=middle;whiteSpace=wrap;rounded=0;fontColor=#333333;" vertex="1" parent="1">
          <mxGeometry x="2068" y="940" width="60" height="30" as="geometry" />
        </mxCell>
        <mxCell id="wmHboVGkY-6y0HL-PFnJ-651" style="edgeStyle=orthogonalEdgeStyle;rounded=0;orthogonalLoop=1;jettySize=auto;html=1;exitX=1;exitY=0.5;exitDx=0;exitDy=0;entryX=0;entryY=0.5;entryDx=0;entryDy=0;fontSize=19;endArrow=none;endFill=0;strokeColor=#000000;" edge="1" parent="1" source="wmHboVGkY-6y0HL-PFnJ-648" target="wmHboVGkY-6y0HL-PFnJ-649">
          <mxGeometry relative="1" as="geometry" />
        </mxCell>
        <mxCell id="wmHboVGkY-6y0HL-PFnJ-655" style="edgeStyle=orthogonalEdgeStyle;rounded=0;orthogonalLoop=1;jettySize=auto;html=1;exitX=0.5;exitY=1;exitDx=0;exitDy=0;entryX=0.5;entryY=0;entryDx=0;entryDy=0;fontSize=19;endArrow=none;endFill=0;strokeColor=#000000;" edge="1" parent="1" source="wmHboVGkY-6y0HL-PFnJ-648" target="wmHboVGkY-6y0HL-PFnJ-654">
          <mxGeometry relative="1" as="geometry" />
        </mxCell>
        <mxCell id="wmHboVGkY-6y0HL-PFnJ-648" value="F_22" style="text;html=1;strokeColor=#666666;fillColor=#f5f5f5;align=center;verticalAlign=middle;whiteSpace=wrap;rounded=0;fontColor=#333333;" vertex="1" parent="1">
          <mxGeometry x="1802.5" y="990" width="60" height="30" as="geometry" />
        </mxCell>
        <mxCell id="wmHboVGkY-6y0HL-PFnJ-652" style="edgeStyle=orthogonalEdgeStyle;rounded=0;orthogonalLoop=1;jettySize=auto;html=1;exitX=1;exitY=0.5;exitDx=0;exitDy=0;entryX=0;entryY=0.5;entryDx=0;entryDy=0;fontSize=19;endArrow=none;endFill=0;strokeColor=#000000;" edge="1" parent="1" source="wmHboVGkY-6y0HL-PFnJ-649" target="wmHboVGkY-6y0HL-PFnJ-650">
          <mxGeometry relative="1" as="geometry" />
        </mxCell>
        <mxCell id="wmHboVGkY-6y0HL-PFnJ-657" style="edgeStyle=orthogonalEdgeStyle;rounded=0;orthogonalLoop=1;jettySize=auto;html=1;exitX=0.5;exitY=1;exitDx=0;exitDy=0;entryX=0.5;entryY=0;entryDx=0;entryDy=0;fontSize=19;endArrow=none;endFill=0;strokeColor=#000000;" edge="1" parent="1" source="wmHboVGkY-6y0HL-PFnJ-649" target="wmHboVGkY-6y0HL-PFnJ-656">
          <mxGeometry relative="1" as="geometry" />
        </mxCell>
        <mxCell id="wmHboVGkY-6y0HL-PFnJ-649" value="F_21 x 4" style="text;html=1;strokeColor=#666666;fillColor=#f5f5f5;align=center;verticalAlign=middle;whiteSpace=wrap;rounded=0;fontColor=#333333;" vertex="1" parent="1">
          <mxGeometry x="1890" y="990" width="60" height="30" as="geometry" />
        </mxCell>
        <mxCell id="wmHboVGkY-6y0HL-PFnJ-661" style="edgeStyle=orthogonalEdgeStyle;rounded=0;orthogonalLoop=1;jettySize=auto;html=1;exitX=0.5;exitY=1;exitDx=0;exitDy=0;entryX=0.5;entryY=0;entryDx=0;entryDy=0;fontSize=19;endArrow=none;endFill=0;strokeColor=#000000;" edge="1" parent="1" source="wmHboVGkY-6y0HL-PFnJ-650" target="wmHboVGkY-6y0HL-PFnJ-660">
          <mxGeometry relative="1" as="geometry" />
        </mxCell>
        <mxCell id="wmHboVGkY-6y0HL-PFnJ-650" value="F_18" style="text;html=1;strokeColor=#666666;fillColor=#f5f5f5;align=center;verticalAlign=middle;whiteSpace=wrap;rounded=0;fontColor=#333333;" vertex="1" parent="1">
          <mxGeometry x="1980" y="990" width="60" height="30" as="geometry" />
        </mxCell>
        <mxCell id="wmHboVGkY-6y0HL-PFnJ-654" value="I_4 x 0.05" style="text;html=1;strokeColor=#666666;fillColor=#f5f5f5;align=center;verticalAlign=middle;whiteSpace=wrap;rounded=0;fontColor=#333333;" vertex="1" parent="1">
          <mxGeometry x="1802.5" y="1040" width="60" height="30" as="geometry" />
        </mxCell>
        <mxCell id="wmHboVGkY-6y0HL-PFnJ-659" style="edgeStyle=orthogonalEdgeStyle;rounded=0;orthogonalLoop=1;jettySize=auto;html=1;exitX=0.5;exitY=1;exitDx=0;exitDy=0;entryX=0.5;entryY=0;entryDx=0;entryDy=0;fontSize=19;endArrow=none;endFill=0;strokeColor=#000000;" edge="1" parent="1" source="wmHboVGkY-6y0HL-PFnJ-656" target="wmHboVGkY-6y0HL-PFnJ-658">
          <mxGeometry relative="1" as="geometry" />
        </mxCell>
        <mxCell id="wmHboVGkY-6y0HL-PFnJ-656" value="F_20 x 2" style="text;html=1;strokeColor=#666666;fillColor=#f5f5f5;align=center;verticalAlign=middle;whiteSpace=wrap;rounded=0;fontColor=#333333;" vertex="1" parent="1">
          <mxGeometry x="1890" y="1040" width="60" height="30" as="geometry" />
        </mxCell>
        <mxCell id="wmHboVGkY-6y0HL-PFnJ-658" value="I_4 x 0.25" style="text;html=1;strokeColor=#666666;fillColor=#f5f5f5;align=center;verticalAlign=middle;whiteSpace=wrap;rounded=0;fontColor=#333333;" vertex="1" parent="1">
          <mxGeometry x="1890" y="1090" width="60" height="30" as="geometry" />
        </mxCell>
        <mxCell id="wmHboVGkY-6y0HL-PFnJ-663" style="edgeStyle=orthogonalEdgeStyle;rounded=0;orthogonalLoop=1;jettySize=auto;html=1;exitX=0.5;exitY=1;exitDx=0;exitDy=0;entryX=0.5;entryY=0;entryDx=0;entryDy=0;fontSize=19;endArrow=none;endFill=0;strokeColor=#000000;" edge="1" parent="1" source="wmHboVGkY-6y0HL-PFnJ-660" target="wmHboVGkY-6y0HL-PFnJ-662">
          <mxGeometry relative="1" as="geometry" />
        </mxCell>
        <mxCell id="wmHboVGkY-6y0HL-PFnJ-660" value="F_10 x 4" style="text;html=1;strokeColor=#666666;fillColor=#f5f5f5;align=center;verticalAlign=middle;whiteSpace=wrap;rounded=0;fontColor=#333333;" vertex="1" parent="1">
          <mxGeometry x="1980" y="1040" width="60" height="30" as="geometry" />
        </mxCell>
        <mxCell id="wmHboVGkY-6y0HL-PFnJ-665" style="edgeStyle=orthogonalEdgeStyle;rounded=0;orthogonalLoop=1;jettySize=auto;html=1;exitX=0.5;exitY=1;exitDx=0;exitDy=0;entryX=0.5;entryY=0;entryDx=0;entryDy=0;fontSize=19;endArrow=none;endFill=0;strokeColor=#000000;" edge="1" parent="1" source="wmHboVGkY-6y0HL-PFnJ-662" target="wmHboVGkY-6y0HL-PFnJ-664">
          <mxGeometry relative="1" as="geometry" />
        </mxCell>
        <mxCell id="wmHboVGkY-6y0HL-PFnJ-662" value="F_2&amp;nbsp;" style="text;html=1;strokeColor=#666666;fillColor=#f5f5f5;align=center;verticalAlign=middle;whiteSpace=wrap;rounded=0;fontColor=#333333;" vertex="1" parent="1">
          <mxGeometry x="1980" y="1090" width="60" height="30" as="geometry" />
        </mxCell>
        <mxCell id="wmHboVGkY-6y0HL-PFnJ-664" value="I_2 x 0.5" style="text;html=1;strokeColor=#666666;fillColor=#f5f5f5;align=center;verticalAlign=middle;whiteSpace=wrap;rounded=0;fontColor=#333333;" vertex="1" parent="1">
          <mxGeometry x="1980" y="1139" width="60" height="30" as="geometry" />
        </mxCell>
        <mxCell id="wmHboVGkY-6y0HL-PFnJ-666" style="edgeStyle=orthogonalEdgeStyle;rounded=0;orthogonalLoop=1;jettySize=auto;html=1;exitX=1;exitY=0.5;exitDx=0;exitDy=0;endArrow=none;endFill=0;fillColor=#f5f5f5;strokeColor=#666666;" edge="1" parent="1" source="wmHboVGkY-6y0HL-PFnJ-668">
          <mxGeometry relative="1" as="geometry">
            <mxPoint x="2148" y="1004.7241379310344" as="targetPoint" />
          </mxGeometry>
        </mxCell>
        <mxCell id="wmHboVGkY-6y0HL-PFnJ-667" style="edgeStyle=orthogonalEdgeStyle;rounded=0;orthogonalLoop=1;jettySize=auto;html=1;exitX=0.5;exitY=1;exitDx=0;exitDy=0;entryX=0.5;entryY=0;entryDx=0;entryDy=0;endArrow=none;endFill=0;fillColor=#f5f5f5;strokeColor=#666666;" edge="1" parent="1" source="wmHboVGkY-6y0HL-PFnJ-668" target="wmHboVGkY-6y0HL-PFnJ-672">
          <mxGeometry relative="1" as="geometry" />
        </mxCell>
        <mxCell id="wmHboVGkY-6y0HL-PFnJ-668" value="S_5" style="text;html=1;strokeColor=#666666;fillColor=#f5f5f5;align=center;verticalAlign=middle;whiteSpace=wrap;rounded=0;fontColor=#333333;" vertex="1" parent="1">
          <mxGeometry x="2068" y="990" width="60" height="30" as="geometry" />
        </mxCell>
        <mxCell id="wmHboVGkY-6y0HL-PFnJ-669" style="edgeStyle=orthogonalEdgeStyle;rounded=0;orthogonalLoop=1;jettySize=auto;html=1;exitX=1;exitY=0.5;exitDx=0;exitDy=0;entryX=0;entryY=0.5;entryDx=0;entryDy=0;endArrow=none;endFill=0;fillColor=#f5f5f5;strokeColor=#666666;" edge="1" parent="1" source="wmHboVGkY-6y0HL-PFnJ-670" target="wmHboVGkY-6y0HL-PFnJ-680">
          <mxGeometry relative="1" as="geometry" />
        </mxCell>
        <mxCell id="wmHboVGkY-6y0HL-PFnJ-670" value="I_9 x 0.5" style="text;html=1;strokeColor=#666666;fillColor=#f5f5f5;align=center;verticalAlign=middle;whiteSpace=wrap;rounded=0;fontColor=#333333;" vertex="1" parent="1">
          <mxGeometry x="2148" y="990" width="60" height="30" as="geometry" />
        </mxCell>
        <mxCell id="wmHboVGkY-6y0HL-PFnJ-671" style="edgeStyle=orthogonalEdgeStyle;rounded=0;orthogonalLoop=1;jettySize=auto;html=1;exitX=0.5;exitY=1;exitDx=0;exitDy=0;entryX=0.5;entryY=0;entryDx=0;entryDy=0;endArrow=none;endFill=0;fillColor=#f5f5f5;strokeColor=#666666;" edge="1" parent="1" source="wmHboVGkY-6y0HL-PFnJ-672" target="wmHboVGkY-6y0HL-PFnJ-674">
          <mxGeometry relative="1" as="geometry" />
        </mxCell>
        <mxCell id="wmHboVGkY-6y0HL-PFnJ-672" value="S_4" style="text;html=1;strokeColor=#666666;fillColor=#f5f5f5;align=center;verticalAlign=middle;whiteSpace=wrap;rounded=0;fontColor=#333333;" vertex="1" parent="1">
          <mxGeometry x="2068" y="1040" width="60" height="30" as="geometry" />
        </mxCell>
        <mxCell id="wmHboVGkY-6y0HL-PFnJ-673" style="edgeStyle=orthogonalEdgeStyle;rounded=0;orthogonalLoop=1;jettySize=auto;html=1;exitX=0.5;exitY=1;exitDx=0;exitDy=0;entryX=0.5;entryY=0;entryDx=0;entryDy=0;endArrow=none;endFill=0;fillColor=#f5f5f5;strokeColor=#666666;" edge="1" parent="1" source="wmHboVGkY-6y0HL-PFnJ-674" target="wmHboVGkY-6y0HL-PFnJ-676">
          <mxGeometry relative="1" as="geometry" />
        </mxCell>
        <mxCell id="wmHboVGkY-6y0HL-PFnJ-674" value="S_3" style="text;html=1;strokeColor=#666666;fillColor=#f5f5f5;align=center;verticalAlign=middle;whiteSpace=wrap;rounded=0;fontColor=#333333;" vertex="1" parent="1">
          <mxGeometry x="2068" y="1090" width="60" height="30" as="geometry" />
        </mxCell>
        <mxCell id="wmHboVGkY-6y0HL-PFnJ-675" style="edgeStyle=orthogonalEdgeStyle;rounded=0;orthogonalLoop=1;jettySize=auto;html=1;exitX=0.5;exitY=1;exitDx=0;exitDy=0;entryX=0.5;entryY=0;entryDx=0;entryDy=0;endArrow=none;endFill=0;fillColor=#f5f5f5;strokeColor=#666666;" edge="1" parent="1" source="wmHboVGkY-6y0HL-PFnJ-676" target="wmHboVGkY-6y0HL-PFnJ-678">
          <mxGeometry relative="1" as="geometry" />
        </mxCell>
        <mxCell id="wmHboVGkY-6y0HL-PFnJ-676" value="S_2" style="text;html=1;strokeColor=#666666;fillColor=#f5f5f5;align=center;verticalAlign=middle;whiteSpace=wrap;rounded=0;fontColor=#333333;" vertex="1" parent="1">
          <mxGeometry x="2068" y="1140" width="60" height="30" as="geometry" />
        </mxCell>
        <mxCell id="wmHboVGkY-6y0HL-PFnJ-677" style="edgeStyle=orthogonalEdgeStyle;rounded=0;orthogonalLoop=1;jettySize=auto;html=1;exitX=0.5;exitY=1;exitDx=0;exitDy=0;entryX=0.5;entryY=0;entryDx=0;entryDy=0;endArrow=none;endFill=0;fillColor=#f5f5f5;strokeColor=#666666;" edge="1" parent="1" source="wmHboVGkY-6y0HL-PFnJ-678" target="wmHboVGkY-6y0HL-PFnJ-679">
          <mxGeometry relative="1" as="geometry" />
        </mxCell>
        <mxCell id="wmHboVGkY-6y0HL-PFnJ-678" value="S_1" style="text;html=1;strokeColor=#666666;fillColor=#f5f5f5;align=center;verticalAlign=middle;whiteSpace=wrap;rounded=0;fontColor=#333333;" vertex="1" parent="1">
          <mxGeometry x="2068" y="1190" width="60" height="30" as="geometry" />
        </mxCell>
        <mxCell id="wmHboVGkY-6y0HL-PFnJ-679" value="I_1 x 0.25" style="text;html=1;strokeColor=#666666;fillColor=#f5f5f5;align=center;verticalAlign=middle;whiteSpace=wrap;rounded=0;fontColor=#333333;" vertex="1" parent="1">
          <mxGeometry x="2068" y="1240" width="60" height="30" as="geometry" />
        </mxCell>
        <mxCell id="wmHboVGkY-6y0HL-PFnJ-680" value="I_7 x 0.125" style="text;html=1;strokeColor=#666666;fillColor=#f5f5f5;align=center;verticalAlign=middle;whiteSpace=wrap;rounded=0;fontColor=#333333;" vertex="1" parent="1">
          <mxGeometry x="2238" y="990" width="70" height="30" as="geometry" />
        </mxCell>
        <mxCell id="wmHboVGkY-6y0HL-PFnJ-682" style="edgeStyle=orthogonalEdgeStyle;rounded=0;orthogonalLoop=1;jettySize=auto;html=1;exitX=0.5;exitY=1;exitDx=0;exitDy=0;entryX=0.5;entryY=0;entryDx=0;entryDy=0;fontSize=19;endArrow=none;endFill=0;strokeColor=#000000;" edge="1" parent="1" source="wmHboVGkY-6y0HL-PFnJ-683" target="wmHboVGkY-6y0HL-PFnJ-685">
          <mxGeometry relative="1" as="geometry" />
        </mxCell>
        <mxCell id="wmHboVGkY-6y0HL-PFnJ-683" value="F_10 x 8" style="text;html=1;strokeColor=#666666;fillColor=#f5f5f5;align=center;verticalAlign=middle;whiteSpace=wrap;rounded=0;fontColor=#333333;" vertex="1" parent="1">
          <mxGeometry x="2340" y="940" width="60" height="30" as="geometry" />
        </mxCell>
        <mxCell id="wmHboVGkY-6y0HL-PFnJ-684" style="edgeStyle=orthogonalEdgeStyle;rounded=0;orthogonalLoop=1;jettySize=auto;html=1;exitX=0.5;exitY=1;exitDx=0;exitDy=0;entryX=0.5;entryY=0;entryDx=0;entryDy=0;fontSize=19;endArrow=none;endFill=0;strokeColor=#000000;" edge="1" parent="1" source="wmHboVGkY-6y0HL-PFnJ-685" target="wmHboVGkY-6y0HL-PFnJ-686">
          <mxGeometry relative="1" as="geometry" />
        </mxCell>
        <mxCell id="wmHboVGkY-6y0HL-PFnJ-685" value="F_2&amp;nbsp;" style="text;html=1;strokeColor=#666666;fillColor=#f5f5f5;align=center;verticalAlign=middle;whiteSpace=wrap;rounded=0;fontColor=#333333;" vertex="1" parent="1">
          <mxGeometry x="2340" y="990" width="60" height="30" as="geometry" />
        </mxCell>
        <mxCell id="wmHboVGkY-6y0HL-PFnJ-686" value="I_2 x 0.5" style="text;html=1;strokeColor=#666666;fillColor=#f5f5f5;align=center;verticalAlign=middle;whiteSpace=wrap;rounded=0;fontColor=#333333;" vertex="1" parent="1">
          <mxGeometry x="2340" y="1039" width="60" height="30" as="geometry" />
        </mxCell>
        <mxCell id="wmHboVGkY-6y0HL-PFnJ-688" style="edgeStyle=orthogonalEdgeStyle;rounded=0;orthogonalLoop=1;jettySize=auto;html=1;exitX=0.5;exitY=1;exitDx=0;exitDy=0;entryX=0.5;entryY=0;entryDx=0;entryDy=0;fontSize=19;endArrow=none;endFill=0;strokeColor=#000000;" edge="1" parent="1" source="wmHboVGkY-6y0HL-PFnJ-689" target="wmHboVGkY-6y0HL-PFnJ-691">
          <mxGeometry relative="1" as="geometry" />
        </mxCell>
        <mxCell id="wmHboVGkY-6y0HL-PFnJ-689" value="F_10 x 20" style="text;html=1;strokeColor=#666666;fillColor=#f5f5f5;align=center;verticalAlign=middle;whiteSpace=wrap;rounded=0;fontColor=#333333;" vertex="1" parent="1">
          <mxGeometry x="2440" y="890" width="60" height="30" as="geometry" />
        </mxCell>
        <mxCell id="wmHboVGkY-6y0HL-PFnJ-690" style="edgeStyle=orthogonalEdgeStyle;rounded=0;orthogonalLoop=1;jettySize=auto;html=1;exitX=0.5;exitY=1;exitDx=0;exitDy=0;entryX=0.5;entryY=0;entryDx=0;entryDy=0;fontSize=19;endArrow=none;endFill=0;strokeColor=#000000;" edge="1" parent="1" source="wmHboVGkY-6y0HL-PFnJ-691" target="wmHboVGkY-6y0HL-PFnJ-692">
          <mxGeometry relative="1" as="geometry" />
        </mxCell>
        <mxCell id="wmHboVGkY-6y0HL-PFnJ-691" value="F_2&amp;nbsp;" style="text;html=1;strokeColor=#666666;fillColor=#f5f5f5;align=center;verticalAlign=middle;whiteSpace=wrap;rounded=0;fontColor=#333333;" vertex="1" parent="1">
          <mxGeometry x="2440" y="940" width="60" height="30" as="geometry" />
        </mxCell>
        <mxCell id="wmHboVGkY-6y0HL-PFnJ-692" value="I_2 x 0.5" style="text;html=1;strokeColor=#666666;fillColor=#f5f5f5;align=center;verticalAlign=middle;whiteSpace=wrap;rounded=0;fontColor=#333333;" vertex="1" parent="1">
          <mxGeometry x="2440" y="989" width="60" height="30" as="geometry" />
        </mxCell>
      </root>
    </mxGraphModel>
  </diagram>
</mxfile>
